<?xml version="1.0" encoding="utf-8"?>
<!-- Generator: Adobe Illustrator 23.0.2, SVG Export Plug-In . SVG Version: 6.00 Build 0)  -->
<svg version="1.1" id="Слой_1" xmlns="http://www.w3.org/2000/svg" xmlns:xlink="http://www.w3.org/1999/xlink" x="0px" y="0px"
	 viewBox="0 0 211.6 327.9" style="enable-background:new 0 0 211.6 327.9;" xml:space="preserve">
<style type="text/css">
	.st0{fill:#E6E6E6;}
	.st1{fill:#333333;}
</style>
<path class="st0" d="M105,11.5c-39.2,0.4-48,13.1-80,15.2c-1.6,0.1-4.8,0.3-7.8,2.3c-10.3,7-6.4,27.6-4.7,45.3
	c4.5,47.7-10,49.2-2.7,84.7c1.1,5.6,6.2,28.2,22.6,52.3c12.4,18.1,34.4,50.4,67.5,52.7c47.7,3.3,81.3-58.2,84.7-64.4
	c9.8-17.9,12.7-33.2,17.2-56.2c6.7-34.9,4.1-57.3,0.8-84.7c-1.4-12-2.9-18.9-8.2-25.4c-4.3-5.3-11.6-10.7-42.9-16.4
	C130.8,13.2,120.5,11.4,105,11.5z"/>
<path class="st1" d="M197.8,20.9c-19.1-13.3-52-20.7-90.4-20.3C70.5,1,36.3,8.6,15.8,21C6.4,26.8,0.5,37.3,0.5,48.4v115
	c0,20.8,19,50,36.7,70.4c11.5,13.3,41.4,44.2,68.7,44.2c26,0,55.8-30.9,67.4-44.1c17.8-20.3,37.1-49.4,38-69.9v-0.3l0.1-116.5
	C211.4,36.7,206.3,26.8,197.8,20.9z M160.4,210.7c-0.5-0.3-7.5,0.4-8.1,0.1l-94.5,0.6c-0.1,0.8-8.9-1.8-9.4-0.5
	c-0.3-0.3-0.6-0.6-1-0.9c-15.7-20.1-23.9-38.1-23.9-46.6v-115c0-3.1,1.6-6.1,4.2-7.7c16.8-10.2,47.5-16.8,79.9-17.1
	c0.9,0,1.7,0,2.6,0c32.1,0,59.8,6,74.4,16.2l0,0c2.3,1.6,3.7,4.4,3.7,7.3L188.2,163c-0.5,8.2-8.1,24.5-22.1,43
	C164.3,207.1,162.4,208.5,160.4,210.7z"/>
<polygon class="st1" points="105.6,322.5 59.6,255.2 105.6,271.7 151.7,255.2 "/>
<g>
	<path class="st1" d="M104.5,111.3c6.6,0,13.2-0.1,19.8,0.1c1.2,0,2.7,0.4,3.4,1.2c13.2,14.5,25.6,29.6,36.4,46.1
		c13.8,21.2,5,39.6-6.5,51.5c-10.8,11.3-24.5,17.5-39.9,19.8c-22,3.3-42.5-0.5-60.5-14.2c-10.8-8.3-17.9-19-19.7-32.8
		c-0.7-5.7,0.4-10.9,2.8-16c5.3-11.4,12.7-21.5,20.7-31.2c6.2-7.6,12.8-14.9,19.1-22.4c1.3-1.5,2.7-2.1,4.6-2.1
		C91.3,111.4,97.9,111.3,104.5,111.3L104.5,111.3z M100.9,195.4c-3.7-1-6.4-2.4-7.2-6.2c-0.4-2.2-1.8-3.5-4-3
		c-2.3,0.5-3.1,2.2-2.7,4.5c1.1,6,5.2,9.4,10.6,11c2.5,0.8,3.5,1.7,3.5,4.4c0,1.2,1.5,2.9,2.8,3.5c0.7,0.4,2.4-0.8,3.4-1.6
		c0.5-0.4,0.6-1.5,0.5-2.2c-0.5-2.6,0.9-3.4,3.1-4.1c2.1-0.7,4.3-1.8,6.1-3.2c7.4-5.8,6.5-15.9-1.7-20.3c-1.7-0.9-3.7-1.5-5.5-2.3
		c-0.7-0.3-1.7-0.9-1.7-1.3c-0.1-4.4-0.1-8.9-0.1-13.4c4.5,1.2,6.2,2.6,7,5.9c0.6,2.4,2,3.9,4.5,3.1c2.5-0.7,2.8-2.8,2.2-5.1
		c-1.3-5.3-4.9-8.4-9.8-10.1c-2.7-0.9-4.7-1.6-4.2-5.1c0.3-2-1.3-3.3-3.5-3.2c-2,0.1-3.1,1.3-3.2,3.3c-0.1,1.3-0.1,2.6-0.2,3.5
		c-2.5,1.1-4.8,1.8-6.9,3c-4.4,2.5-7.1,6.2-7.1,11.4c0,5.3,3.1,8.7,7.7,10.9c1.5,0.7,3.2,1.1,4.7,1.9c0.7,0.4,1.6,1.3,1.6,2
		C101,186.8,100.9,191,100.9,195.4z"/>
	<path class="st1" d="M89.1,74.4c2.5-2.9,4.8-5.7,7.3-8.2c5.8-5.7,10.2-5.6,16,0.1c2.5,2.5,4.6,5.2,7.1,8c2.6-1.5,5.1-3.2,7.9-4.5
		c4.3-2,8.7-4.1,13.3-5.3c7.5-1.9,12.9,4.1,10.1,11.3c-1.8,4.7-4.7,9.3-7.9,13.3c-3.8,4.8-8.4,9.1-12.9,13.4c-1.1,1-2.9,1.8-4.4,1.8
		c-14.2,0.1-28.4,0.1-42.6,0c-1.1,0-2.6-0.2-3.3-0.9C73.4,96.6,67,89.8,61.1,82.7c-1.8-2.2-2.9-5.3-3.6-8.1
		C56,68,60.7,63.2,67.3,64.3c7,1.1,12.9,4.8,18.8,8.3C87.1,73.2,88.1,73.8,89.1,74.4z"/>
	<path class="st1" d="M108,182.9c4.9,1.4,6.9,3.2,6.8,6c0,2.9-2.4,5.2-6.8,6.3C108,191.2,108,187.2,108,182.9z"/>
	<path class="st1" d="M100.7,161.3c0,4.2,0,8.1,0,12.1c-4.1-0.5-6.8-2.6-7-5.4C93.6,165,96.2,162.4,100.7,161.3z"/>
</g>
</svg>
