<?xml version="1.0" encoding="utf-8"?>
<!-- Generator: Adobe Illustrator 23.0.2, SVG Export Plug-In . SVG Version: 6.00 Build 0)  -->
<svg version="1.1" id="Слой_1" xmlns="http://www.w3.org/2000/svg" xmlns:xlink="http://www.w3.org/1999/xlink" x="0px" y="0px"
	 viewBox="0 0 211.6 327.9" style="enable-background:new 0 0 211.6 327.9;" xml:space="preserve">
<style type="text/css">
	.st0{fill:#C1272D;}
	.st1{fill:#FFFFFF;}
</style>
<g>
	<g>
		<polygon class="st0" points="53.2,249.3 105.8,268.1 158.5,249.4 105.8,326 		"/>
		<path class="st1" d="M152.1,254.3l-46.3,67.3l-46.2-67.3l46.2,16.5L152.1,254.3 M46.7,244.4l8.7,12.7l46.2,67.3l4.1,6l4.1-6
			l46.3-67.3l8.8-12.7l-14.6,5.2l-44.6,15.9l-44.5-15.9L46.7,244.4L46.7,244.4z"/>
	</g>
	<g>
		<path class="st0" d="M32.2,242.2c-7,0-13-4.8-14.7-11.7c0-0.2-0.1-0.3-0.1-0.5c0-0.1-0.1-0.3-0.1-0.4l-0.1-0.4V225l0.2-0.4
			c0.1-0.3,0.2-0.6,0.3-1c1.6-6.7,7.6-11.5,14.3-11.5l0.3,0c0.1,0,0.2,0,0.2,0c0,0,0.1-0.1,0.5-0.6c3.2-4,6.4-8.1,9.6-12.2
			c3-3.8,5.9-7.5,8.9-11.3c-3.4-3.5-6.9-6.9-10.3-10.3c-2-2-4-4-5.9-5.9l-1.8-1.8L45.2,158l2.9,2.1c1,0.7,2.1,1.5,3.3,2.3l25.5,18
			c0.6,0.5,1.2,1,1.7,1.6c5.4,7.6,10.8,15.3,16.1,22.7l5.1,7.2l0.1,0.2c0.1,0.2,0.2,0.4,0.3,0.5l0.8,1.6l-1.3,1.3
			c-1.4,1.4-2.9,2.8-4.3,4.2c-1.4,1.4-2.9,2.9-4.3,4.3l-1.8,1.7l-1.7-1.7c-2.9-2.9-5.8-5.8-8.7-8.8c-2.5-2.5-4.9-5-7.4-7.5
			c-1.2,1-2.4,1.9-3.5,2.8c-3.4,2.7-6.9,5.4-10.3,8c-3.4,2.7-6.7,5.3-10.1,7.9c-0.2,0.2-0.3,0.2-0.3,0.3c0,0,0,0.1,0,0.3
			c0.1,4.2-1.6,8.1-4.9,11.1C39.5,240.8,35.9,242.2,32.2,242.2C32.2,242.2,32.2,242.2,32.2,242.2z"/>
		<path class="st1" d="M45.5,161.3c1.4,1,2.9,2.1,4.5,3.2c8.5,6,17,12,25.5,18c0.4,0.3,0.8,0.7,1.1,1.1c7,9.8,13.9,19.6,20.9,29.5
			c0.1,0.3,0.3,0.5,0.4,0.7c-2.9,2.8-5.7,5.7-8.6,8.5c-5.8-5.8-11.7-11.8-17.7-17.8c-1.9,1.5-3.7,2.9-5.3,4.2
			c-6.8,5.3-13.6,10.7-20.4,16c-0.8,0.7-1.2,1.2-1.2,2.5c0.1,3.7-1.4,6.8-4.1,9.2c-2.5,2.3-5.5,3.3-8.4,3.3
			c-5.5,0-10.8-3.7-12.3-9.9c-0.1-0.3-0.2-0.7-0.3-1c0-1.1,0-2.2,0-3.3c0.2-0.5,0.3-0.9,0.4-1.4c1.3-5.5,6.2-9.5,11.8-9.5
			c0.1,0,0.2,0,0.3,0c1.3,0,1.8-0.6,2.6-1.5c6.4-8.1,12.8-16.3,19.2-24.4c0.2-0.2,0.4-0.5,0.6-0.8c-5.9-6-11.9-11.9-17.8-17.8
			C39.7,167.1,42.5,164.3,45.5,161.3 M45,154.8l-3,3l-8.8,8.8l-3.5,3.5l3.5,3.5c2,2,3.9,3.9,5.9,5.9c2.9,2.9,5.8,5.8,8.8,8.8
			c-2.5,3.2-5,6.3-7.5,9.5c-3.1,3.9-6.2,7.9-9.3,11.8c-7.5,0.3-14.2,5.8-15.9,13.3l0,0.1l0,0.1c-0.1,0.3-0.1,0.4-0.1,0.5l-0.4,0.9v1
			v3.3v0.8l0.3,0.8c0,0.1,0.1,0.2,0.1,0.3c0,0.2,0.1,0.3,0.1,0.5c1.9,8,9,13.6,17.1,13.6c4.3,0,8.5-1.6,11.8-4.6
			c3.6-3.2,5.6-7.4,5.7-12c3.2-2.5,6.3-5,9.5-7.4c3.4-2.7,6.8-5.3,10.2-8l0,0l0,0c0.6-0.5,1.1-0.9,1.7-1.4c2,2,3.9,3.9,5.8,5.9
			c2.9,3,5.8,5.9,8.7,8.8l3.5,3.5l3.5-3.4c1.5-1.4,2.9-2.9,4.4-4.3c1.4-1.4,2.8-2.8,4.2-4.2l2.6-2.5l-1.6-3.3
			c-0.1-0.2-0.2-0.4-0.3-0.5l-0.1-0.2l-0.4-0.6l-4.8-6.7c-5.3-7.5-10.7-15.2-16.2-22.8l0,0l0,0c-0.6-0.8-1.3-1.5-2.1-2.1l-0.1,0
			l-0.1,0l-25.5-18l0,0l0,0c-1.1-0.8-2.2-1.5-3.2-2.3c-0.4-0.3-0.8-0.6-1.2-0.9L45,154.8L45,154.8z"/>
	</g>
	<g>
		<path class="st0" d="M86,190.8c0-0.1-0.1-0.1-0.1-0.2c-0.1-0.2-0.3-0.3-0.4-0.6c-2.2-3.3-4.3-6.6-6.4-9.9
			c-0.1-0.1-0.2-0.2-0.4-0.4c-1.6-1-3.1-2-4.7-3c-1.6-1-3.1-2-4.7-3c-0.1-0.1-0.2-0.1-0.3-0.2c-0.3-0.2-0.6-0.4-1-0.6l-2.3-1.7l2-2
			c0.1-0.1,0.2-0.2,0.3-0.3c0.1-0.2,0.3-0.3,0.4-0.5l1.1-1.3c3.8-4.2,7.4-8.2,11.1-12.3c-0.8-0.7-1.5-1.4-2.3-2.1
			c-1.4-1.3-2.7-2.5-4.1-3.8c-7.7-7-15.5-14.1-23.1-21c-3.7-3.4-7.4-6.7-11.1-10.1c-1.4-1.3-2.8-2.6-4.2-3.9
			c-1.4-1.3-2.8-2.6-4.2-3.9c-0.7-0.7-1.4-1.8-1.9-2.8l0-0.1l0-0.1c-2.8-8.3-5.6-16.8-8.3-25c-1.4-4.1-2.7-8.3-4.1-12.4
			c0-0.1-0.2-0.5-0.2-0.5l-0.2-0.5l0-0.6v-3.7l3.3,1.1c1.8,0.6,3.6,1.2,5.4,1.7c1.8,0.6,3.6,1.2,5.4,1.8c4.7,1.6,9.3,3.1,13.9,4.7
			c4.6,1.5,9.2,3.1,13.9,4.6c1,0.3,1.9,0.9,2.7,1.7l0.1,0.1l40.5,44.4c0.8,0.9,1.7,1.8,2.5,2.8c0.2,0.2,0.4,0.5,0.6,0.7l4.8-5.2
			c7-7.7,14.1-15.5,21-23.1c3.3-3.7,6.7-7.3,10-11c1.3-1.4,2.6-2.8,3.8-4.1c1.3-1.4,2.6-2.8,3.9-4.2c0.7-0.7,1.8-1.4,2.8-1.9l0.1,0
			l0.1,0c7.1-2.4,14.2-4.8,21.3-7.1c5.3-1.8,10.6-3.5,16-5.3c0.1,0,0.5-0.2,0.5-0.2l0.5-0.2l0.6,0h3.7l-1.1,3.3
			c-0.6,1.8-1.2,3.6-1.8,5.4c-0.6,1.8-1.1,3.6-1.7,5.4c-1.6,4.7-3.1,9.3-4.7,13.9c-1.5,4.6-3.1,9.2-4.6,13.9c-0.3,1-0.9,1.9-1.7,2.7
			l-44.5,40.6c-1.5,1.3-2.9,2.6-4.4,3.9c-0.1,0.1-0.2,0.2-0.3,0.3c3.9,4.3,8,8.7,11.9,13.1l0.1,0.1l0.1,0.1c0.3,0.4,0.5,0.7,0.8,0.9
			l2.2,2.2l-2.5,1.7c-0.1,0-0.1,0.1-0.2,0.1c-0.2,0.1-0.3,0.3-0.6,0.4c-3.3,2.2-6.7,4.3-9.9,6.4c-0.1,0.1-0.2,0.2-0.4,0.4
			c-1,1.6-2,3.1-3,4.7c-1,1.6-2,3.1-3,4.7c-0.1,0.1-0.1,0.2-0.2,0.3c-0.2,0.3-0.4,0.6-0.6,1l-1.7,2.3l-2-2c-0.1-0.1-0.2-0.2-0.3-0.3
			c-0.2-0.1-0.3-0.3-0.5-0.4c-2.6-2.4-5.2-4.8-7.8-7.2c-2.3-2.1-4.5-4.1-6.7-6.2c-2.1,1.9-4.1,3.8-6.2,5.7c-2.7,2.4-5.3,4.9-8,7.3
			l-0.1,0.1l-0.1,0.1c-0.4,0.3-0.7,0.5-0.9,0.8l-2.2,2.2L86,190.8z"/>
		<path class="st1" d="M19.4,68c3.6,1.2,7.2,2.3,10.8,3.5c9.3,3.1,18.5,6.2,27.8,9.3c0.6,0.2,1.2,0.6,1.7,1.1
			c13.5,14.8,27,29.6,40.5,44.4c1.7,1.8,3.3,3.7,5,5.5c2.2-2.4,4.4-4.8,6.6-7.2c10.3-11.4,20.7-22.7,31.1-34.1
			c2.6-2.7,5.1-5.6,7.7-8.3c0.5-0.5,1.3-1,2-1.3c12.4-4.2,24.9-8.3,37.4-12.5c0.2-0.1,0.5-0.2,0.7-0.3c0.1,0,0.1,0,0.2,0
			c-1.2,3.6-2.3,7.2-3.5,10.8c-3.1,9.3-6.2,18.5-9.3,27.8c-0.2,0.6-0.6,1.2-1.1,1.7c-14.8,13.5-29.6,27-44.4,40.5
			c-2.2,1.9-4.3,3.9-6.5,5.9c4.5,4.9,9.1,9.9,13.6,14.9c0.3,0.4,0.6,0.8,1,1.2c-0.3,0.2-0.5,0.4-0.7,0.5c-3.3,2.2-6.6,4.3-9.9,6.4
			c-0.5,0.3-0.8,0.7-1.1,1.1c-2,3.2-4,6.3-6,9.5c-0.2,0.3-0.4,0.7-0.7,1.1c-0.3-0.3-0.6-0.5-0.8-0.7c-5.5-5-10.9-10-16.3-14.9
			c-5.3,4.8-10.6,9.7-15.9,14.5c-0.4,0.3-0.8,0.6-1.2,1c-0.2-0.3-0.4-0.5-0.5-0.7c-2.2-3.3-4.3-6.6-6.4-9.9
			c-0.3-0.5-0.7-0.8-1.1-1.1c-3.2-2-6.3-4-9.5-6c-0.3-0.2-0.7-0.4-1.1-0.7c0.3-0.3,0.5-0.6,0.7-0.8c4.7-5.2,9.3-10.3,14-15.4
			c-2.8-2.5-5.5-5.1-8.3-7.6c-11.4-10.3-22.7-20.7-34.1-31.1c-2.7-2.6-5.6-5.1-8.3-7.7c-0.5-0.5-1-1.3-1.3-2
			C28,94,23.9,81.5,19.7,68.9c-0.1-0.2-0.2-0.5-0.3-0.7C19.4,68.1,19.4,68.1,19.4,68 M14.4,61.1V68v0.2v1.2l0.5,1l0,0.1
			c0,0.1,0.1,0.2,0.1,0.3c1.4,4.1,2.7,8.3,4.1,12.4c2.7,8.2,5.5,16.7,8.3,24.9l0.1,0.2l0.1,0.2c0.3,0.6,1,2.3,2.4,3.6l0,0l0,0
			c1.4,1.3,2.8,2.7,4.3,3.9c1.4,1.2,2.7,2.5,4,3.8l0,0l0,0c3.7,3.4,7.4,6.7,11,10.1c7.6,6.9,15.4,14.1,23.1,21
			c1.4,1.2,2.8,2.5,4.1,3.8c0.2,0.1,0.3,0.3,0.5,0.4c-3.1,3.4-6.2,6.8-9.4,10.4l-1.2,1.3c-0.2,0.2-0.4,0.4-0.5,0.6
			c0,0-0.1,0.1-0.1,0.1l-4.1,4.1l4.6,3.4c0.5,0.4,0.9,0.6,1.2,0.8c0.1,0,0.1,0.1,0.2,0.1l0.1,0l0,0c1.6,1,3.2,2,4.7,3
			c1.5,0.9,3,1.9,4.5,2.8c2,3.1,4.1,6.4,6.2,9.6c0.2,0.4,0.4,0.6,0.6,0.8l0.1,0.1l3.4,5.1l4.3-4.4c0.1-0.1,0.4-0.3,0.7-0.5l0.2-0.1
			l0.2-0.2c2.7-2.4,5.3-4.8,8-7.3c1.5-1.4,3-2.8,4.6-4.2c1.7,1.5,3.4,3.1,5.1,4.7c2.6,2.4,5.2,4.7,7.8,7.1c0.2,0.2,0.4,0.4,0.6,0.5
			c0,0,0.1,0.1,0.1,0.1l4.1,4.1l3.4-4.6c0.4-0.5,0.6-0.9,0.8-1.2c0-0.1,0.1-0.1,0.1-0.2l0-0.1l0,0c1-1.6,2-3.2,3-4.7
			c0.9-1.5,1.9-3,2.8-4.5c3.1-2,6.4-4.1,9.6-6.2c0.4-0.2,0.6-0.4,0.8-0.6l0.1-0.1l5.1-3.4l-4.4-4.3c-0.1-0.1-0.3-0.4-0.5-0.7
			l-0.1-0.2l-0.1-0.2c-3.4-3.8-6.9-7.6-10.3-11.3c0.9-0.8,1.8-1.6,2.7-2.4l0.1,0l0.1,0l44.4-40.5l0.1-0.1l0.1-0.1
			c1.1-1.1,1.9-2.3,2.3-3.7c1.5-4.6,3.1-9.3,4.6-13.9c1.6-4.6,3.1-9.3,4.7-13.9c0.6-1.8,1.2-3.7,1.8-5.5c0.6-1.8,1.1-3.6,1.7-5.3
			l2.2-6.6h-6.9h-0.2h-1.2l-1,0.5l-0.1,0c-0.1,0-0.2,0.1-0.3,0.1c-5.3,1.8-10.6,3.5-15.8,5.3c-7,2.3-14.3,4.7-21.4,7.1l-0.2,0.1
			l-0.2,0.1c-0.6,0.3-2.3,1-3.6,2.4l0,0l0,0c-1.3,1.4-2.7,2.8-3.9,4.3c-1.2,1.4-2.5,2.7-3.8,4l0,0l0,0c-3.4,3.7-6.7,7.4-10.1,11
			c-6.9,7.6-14.1,15.4-21,23.1l-2.9,3.1c-0.4-0.5-0.9-1-1.4-1.5L63.4,78.5l-0.1-0.1l-0.1-0.1c-1.1-1.1-2.3-1.9-3.7-2.3
			c-4.6-1.5-9.3-3.1-13.9-4.6c-4.6-1.6-9.3-3.1-13.9-4.7c-1.8-0.6-3.7-1.2-5.5-1.8c-1.8-0.6-3.6-1.1-5.3-1.7L14.4,61.1L14.4,61.1z"
			/>
	</g>
	<g>
		<path class="st0" d="M176.3,242l-0.4-0.2c-0.3-0.1-0.6-0.2-1-0.3c-6.7-1.6-11.5-7.6-11.5-14.3l0-0.2c0-0.2,0-0.3,0-0.3
			c0,0-0.1-0.1-0.6-0.5c-4-3.2-8.1-6.4-12.1-9.5c-3.8-3-7.6-5.9-11.3-8.9c-3.5,3.4-7,6.9-10.3,10.3c-2,2-3.9,4-5.9,5.9l-1.8,1.8
			l-12.1-12.1l2.1-2.9c0.7-1,1.5-2.1,2.3-3.3l18-25.5c0.5-0.6,1.1-1.2,1.6-1.7c7.7-5.5,15.5-11,23-16.3l6.8-4.8l0.2-0.1
			c0.2-0.1,0.4-0.2,0.5-0.3l1.6-0.8l1.3,1.3c1.4,1.4,2.8,2.8,4.2,4.3c1.4,1.4,2.9,2.9,4.3,4.3l1.7,1.8l-1.7,1.7
			c-2.9,2.9-5.8,5.8-8.8,8.7c-2.5,2.5-5,4.9-7.5,7.4c0.1,0.2,0.3,0.4,0.4,0.6c0.8,1.1,1.6,2.1,2.4,3c2.7,3.5,5.4,6.9,8.1,10.3
			c2.7,3.4,5.3,6.7,7.9,10.1c0.2,0.2,0.2,0.3,0.3,0.3c0,0,0,0,0,0c0,0,0.1,0,0.3,0c0.1,0,0.2,0,0.3,0c4.1,0,7.8,1.7,10.7,4.9
			c3.7,4.1,4.9,9.6,3.2,14.8c-1.7,5.1-5.8,8.8-11,9.9c-0.1,0-0.3,0.1-0.5,0.1c-0.1,0-0.3,0.1-0.4,0.1l-0.4,0.1H176.3z"/>
		<path class="st1" d="M165.1,161.2c2.8,2.9,5.7,5.7,8.5,8.6c-5.8,5.8-11.8,11.7-17.8,17.7c1.5,1.9,2.8,3.7,4.2,5.4
			c5.3,6.8,10.7,13.6,16,20.4c0.7,0.8,1.2,1.2,2.5,1.2c0.1,0,0.2,0,0.3,0c3.5,0,6.5,1.5,8.9,4.1c6.5,7.2,2.9,18.6-6.6,20.6
			c-0.3,0.1-0.7,0.2-1,0.3c-1.1,0-2.2,0-3.3,0c-0.5-0.2-0.9-0.3-1.4-0.4c-5.5-1.3-9.5-6.2-9.5-11.8c0.1-1.5-0.5-2.1-1.5-2.9
			c-8.1-6.4-16.3-12.8-24.4-19.2c-0.2-0.2-0.5-0.4-0.8-0.6c-6,5.9-11.9,11.9-17.8,17.8c-3-3-5.8-5.8-8.8-8.8c1-1.4,2.1-2.9,3.2-4.5
			c6-8.5,12-17,18-25.5c0.3-0.4,0.7-0.8,1.1-1.1c9.8-7,19.6-13.9,29.5-20.9C164.7,161.5,164.9,161.3,165.1,161.2 M166.1,155.1
			l-3.3,1.6c-0.2,0.1-0.4,0.2-0.5,0.3l-0.2,0.1l-0.6,0.4l-6.7,4.8c-7.5,5.3-15.2,10.7-22.8,16.2l0,0l0,0c-0.8,0.6-1.5,1.3-2.1,2.1
			l0,0.1l0,0.1l-18,25.5l0,0l0,0c-0.8,1.1-1.5,2.2-2.3,3.2c-0.3,0.4-0.6,0.8-0.9,1.2l-2.5,3.4l3,3l8.8,8.8l3.5,3.5l3.5-3.5
			c2-2,3.9-3.9,5.9-5.9c2.9-2.9,5.8-5.8,8.8-8.8c3.2,2.5,6.3,5,9.5,7.5c3.9,3.1,7.9,6.2,11.8,9.3c0.3,7.5,5.8,14.2,13.3,15.9l0.1,0
			l0.1,0c0.3,0.1,0.4,0.1,0.5,0.1l0.9,0.4h1h3.3h0.8l0.8-0.3c0.1,0,0.2-0.1,0.3-0.1c0.1,0,0.3-0.1,0.4-0.1
			c6.1-1.4,10.8-5.7,12.7-11.6c2-6,0.6-12.5-3.7-17.2c-3.2-3.6-7.4-5.6-12-5.7c-2.5-3.2-5-6.3-7.5-9.5c-2.7-3.4-5.3-6.8-8-10.2
			l0-0.1l0-0.1c-0.5-0.6-0.9-1.2-1.4-1.8c2-2,4-3.9,5.9-5.9c3-2.9,5.9-5.8,8.8-8.7l3.5-3.5l-3.4-3.5c-1.4-1.5-2.9-2.9-4.3-4.4
			c-1.4-1.4-2.8-2.8-4.2-4.2L166.1,155.1L166.1,155.1z"/>
	</g>
</g>
</svg>
