<?xml version="1.0" encoding="utf-8"?>
<!-- Generator: Adobe Illustrator 23.0.2, SVG Export Plug-In . SVG Version: 6.00 Build 0)  -->
<svg version="1.1" id="Слой_1" xmlns="http://www.w3.org/2000/svg" xmlns:xlink="http://www.w3.org/1999/xlink" x="0px" y="0px"
	 viewBox="0 0 211.6 327.9" style="enable-background:new 0 0 211.6 327.9;" xml:space="preserve">
<style type="text/css">
	.st0{fill:#E6E6E6;}
	.st1{fill:#333333;}
</style>
<path class="st0" d="M105,11.5c-39.2,0.4-48,13.1-80,15.2c-1.6,0.1-4.8,0.3-7.8,2.3c-10.3,7-6.4,27.6-4.7,45.3
	c4.5,47.7-10,49.2-2.7,84.7c1.1,5.6,6.2,28.2,22.6,52.3c12.4,18.1,34.4,50.4,67.5,52.7c47.7,3.3,81.3-58.2,84.7-64.4
	c9.8-17.9,12.7-33.2,17.2-56.2c6.7-34.9,4.1-57.3,0.8-84.7c-1.4-12-2.9-18.9-8.2-25.4c-4.3-5.3-11.6-10.7-42.9-16.4
	C130.8,13.2,120.5,11.4,105,11.5z"/>
<path class="st1" d="M197.8,20.9c-19.1-13.3-52-20.7-90.4-20.3C70.5,1,36.3,8.6,15.8,21C6.4,26.8,0.5,37.3,0.5,48.4v115
	c0,20.8,19,50,36.7,70.4c11.5,13.3,41.4,44.2,68.7,44.2c26,0,55.8-30.9,67.4-44.1c17.8-20.3,37.1-49.4,38-69.9v-0.3l0.1-116.5
	C211.4,36.7,206.3,26.8,197.8,20.9z M160.4,210.7c-0.5-0.3-7.5,0.4-8.1,0.1l-94.5,0.6c-0.1,0.8-8.9-1.8-9.4-0.5
	c-0.3-0.3-0.6-0.6-1-0.9c-15.7-20.1-23.9-38.1-23.9-46.6v-115c0-3.1,1.6-6.1,4.2-7.7c16.8-10.2,47.5-16.8,79.9-17.1
	c0.9,0,1.7,0,2.6,0c32.1,0,59.8,6,74.4,16.2l0,0c2.3,1.6,3.7,4.4,3.7,7.3L188.2,163c-0.5,8.2-8.1,24.5-22.1,43
	C164.3,207.1,162.4,208.5,160.4,210.7z"/>
<polygon class="st1" points="105.6,322.5 59.6,255.2 105.6,271.7 151.7,255.2 "/>
<path class="st0" d="M94.3,186.7c0-4.6,0-9.2,0-13.7c0-3.2,1.4-4.6,4.6-4.6c4.6,0,9.2,0,13.7,0c3,0,4.5,1.3,4.5,4.3
	c0.1,9.5,0,19.1,0,28.6c0,1.1-0.4,1.4-1.5,1.4c-6.6,0-13.2,0-19.8,0c-1.3,0-1.6-0.5-1.6-1.7C94.4,196.3,94.3,191.5,94.3,186.7z"/>
<path class="st0" d="M68.6,191.3c-2.3,0-4.7,0-7,0c-1.1,0-1.6-0.3-1.6-1.5c0.1-4.6-0.1-9.2,0.1-13.7c0.1-4.6,5.2-8.2,9.7-7.5
	c4.6,0.6,7.6,4.7,7.5,9.3c-0.1,4-0.1,7.8,0,11.8c0,1.2-0.4,1.7-1.7,1.7C73.2,191.2,70.9,191.3,68.6,191.3z"/>
<path class="st0" d="M142.9,191.3c-2.4,0-4.8,0-7.1,0c-1,0-1.4-0.4-1.4-1.3c0-4.7-0.1-9.4,0.1-14.1c0.2-4.4,5.3-8.2,9.7-7.2
	c5.1,1.1,7.4,4,7.4,9.1c0,3.8-0.1,7.7,0,11.4c0,1.6-0.4,2.3-2.1,2.1C147.3,191.2,145.1,191.3,142.9,191.3L142.9,191.3z"/>
<path class="st0" d="M105.3,128.4c-3.5,0.1-8.3-3.8-8.1-8.7c0.2-4.5,4-8.4,8.4-8.4c5.4,0.1,8.8,3.5,8.8,8.4
	C114.2,124.7,111.3,128.2,105.3,128.4z"/>
<path class="st1" d="M177.1,156.3c-13.6-8.9-27.2-17.8-40.8-26.7c-1.3-0.9-1.9-1.8-1.9-3.4c0.1-5.8,0-11.7,0.1-17.5
	c0-2.3-0.7-4-2.4-5.7c-6.2-6.1-20.5-20.3-26.6-26.5l-7.7,8.1c-5.9,6-11.8,11.9-17.7,17.8c-1.9,1.9-3.1,4-3,6.9
	c0.2,5.7,0,11.4,0.1,17.2c0,1.4-0.4,2.3-1.6,3.1C68.7,134,62,138.5,55.1,143c-7.1,4.7-14.3,9.3-21.4,14c-2.2,1.4-2.8,3.3-1.8,5.3
	c0.8,1.6,1.8,3.2,2.7,4.6c1.2,1.8,3,2.2,5,1.1c0.5-0.3,1-0.6,1.5-1c0.4-0.3,1-0.4,1.4-0.6c0.1,0.5,0.3,1,0.3,1.5c0,11,0,22.1,0,33.1
	c0,1.5-0.5,1.9-1.9,1.9c-2.3,0-3.7,1.6-3.8,3.9c0,0.8,0.1,1.6,0,2.3c-0.4,3.5,1.8,5.3,5.2,5.3c21.1-0.1,42.3-0.1,63.5-0.1
	c12.5,0,24.9,0,37.4,0c9,0,17.9,0,26.8,0c2.5,0,4-1.1,4.3-3.1c0.2-1.6,0.2-3.3,0-4.8c-0.3-2.3-1.2-3.3-3.6-3.4c-1.9-0.1-2-1-2-2.5
	c0-10.4,0-20.9,0-31.2c0-1,0.2-1.8,0.3-2.8c0.8,0.4,1.7,0.8,2.5,1.2c2.5,1.5,4.3,1.1,5.9-1.4c0.5-0.8,1-1.7,1.5-2.5
	C180.9,160.1,180.6,158.6,177.1,156.3z M77.2,189.7c0,1.2-0.4,1.7-1.7,1.7c-2.3-0.1-4.7,0-7,0s-4.7,0-7,0c-1.1,0-1.6-0.3-1.6-1.5
	c0.1-4.6-0.1-9.2,0.1-13.7c0.1-4.6,5.2-8.2,9.7-7.5c4.6,0.6,7.6,4.7,7.5,9.3C77.1,181.8,77.2,185.8,77.2,189.7z M105.5,111.2
	c5.4,0.1,8.8,3.5,8.8,8.4c-0.1,5-3,8.5-9,8.7c-3.5,0.1-8.3-3.8-8.1-8.7C97.3,115.2,101.1,111.2,105.5,111.2z M115.8,202.8
	c-6.6,0-13.2,0-19.8,0c-1.3,0-1.6-0.5-1.6-1.7c0-4.8,0-9.5,0-14.3c0-4.6,0-9.2,0-13.7c0-3.2,1.4-4.6,4.6-4.6c4.6,0,9.2,0,13.7,0
	c3,0,4.5,1.3,4.5,4.3c0.1,9.5,0,19.1,0,28.6C117.3,202.4,116.8,202.8,115.8,202.8z M149.5,191.3c-2.2-0.2-4.4,0-6.6,0l0,0
	c-2.4,0-4.8,0-7.1,0c-1,0-1.4-0.4-1.4-1.3c0-4.7-0.1-9.4,0.1-14.1c0.2-4.4,5.3-8.2,9.7-7.2c5.1,1.1,7.4,4,7.4,9.1
	c0,3.8-0.1,7.7,0,11.4C151.6,190.8,151.3,191.5,149.5,191.3z"/>
</svg>
