<?xml version="1.0" encoding="utf-8"?>
<!-- Generator: Adobe Illustrator 23.0.2, SVG Export Plug-In . SVG Version: 6.00 Build 0)  -->
<svg version="1.1" id="Слой_1" xmlns="http://www.w3.org/2000/svg" xmlns:xlink="http://www.w3.org/1999/xlink" x="0px" y="0px"
	 viewBox="0 0 211.65 327.85" style="enable-background:new 0 0 211.65 327.85;" xml:space="preserve">
<style type="text/css">
	.st0{fill:#FFFFFF;stroke:#3C3C3B;stroke-width:23;stroke-miterlimit:10;}
	.st1{fill:#3C3C3B;}
	.st2{display:none;}
	.st3{display:inline;fill:none;}
	.st4{display:inline;fill:#662483;}
	.st5{display:none;fill:#FFFFFF;stroke:#662483;stroke-width:23;stroke-miterlimit:10;}
	.st6{display:none;fill:#662483;stroke:#662483;stroke-miterlimit:10;}
</style>
<g>
	<path class="st0" d="M200.15,162.8c-1.45,30.25-61.4,103.14-94.33,103.14c-34.94,0-94.33-72.89-94.33-103.14V47.77
		c0-7.13,3.68-13.78,9.77-17.47C60.79,6.4,154.76,4.26,191.43,29.83c5.48,3.82,8.72,10.1,8.72,16.79V162.8z"/>
	<path class="st1" d="M207.26,156.75c-0.52-18.14-0.11-36.31-0.11-54.47c-0.02,0-0.04,0-0.06,0c0-21.16,0.13-42.32-0.16-63.47
		c-0.04-2.77-1.46-6.69-3.55-8.05c-8.62-5.59-17.36-11.32-26.76-15.31C144.2,1.69,110.33-0.86,75.74,4.32
		C52.78,7.76,31.1,14.65,11.79,28.07c-4.65,3.23-6.88,6.92-6.84,12.81c0.22,36.97,0.1,73.95,0.13,110.93
		c0,4.66-0.07,9.35,0.46,13.96c2.25,19.45,11.32,35.59,24.52,49.68c20.36,21.73,44.91,37.46,71.79,49.7
		c2.61,1.19,6.76,0.99,9.39-0.25c8.85-4.17,17.48-8.88,25.95-13.8c20.78-12.07,39.33-26.81,53.88-46.16
		C201.81,190.68,207.78,174.96,207.26,156.75z M119.44,214.88c0.01,1.83,0,3.65,0,5.92c-8.78,0-17.3,0-26.39,0
		c0-3.72,0-7.34,0-10.96c0-10.17-0.06-20.33,0.02-30.5c0.06-7.98,5.27-13.65,12.66-14.03c7.13-0.37,13.3,5.25,13.51,13.08
		C119.57,190.55,119.4,202.72,119.44,214.88z M192.87,165.03c-0.14,12.16-6.05,22.77-13.68,32.06c-6.08,7.41-12.78,14.3-19.2,21.42
		c-0.52-0.27-1.03-0.54-1.55-0.82c-1.13-9.53-2.25-19.06-3.39-28.59c-2.21-18.49-4.52-36.98-6.58-55.49
		c-0.02-0.19-0.06-0.35-0.09-0.52h10.87V75.31h-21.46v20.7h-21.63v-20.7H95.74v20.84H74.11V75.31H52.94v57.78h10.41
		c-0.12,0.44-0.22,0.89-0.28,1.4c-1.66,15.21-3.35,30.42-5.09,45.63c-1.32,11.57-2.71,23.13-4.11,34.69
		c-0.09,0.77-0.53,1.49-1.03,2.82c-18.24-16.09-33.39-33.41-33.56-59.06c-0.25-37.65-0.14-75.31-0.22-112.97
		c-0.01-4.59,2.47-7.28,6.17-9.46c15.99-9.42,33.31-14.99,51.54-17.79c30.99-4.75,61.45-2.85,90.85,8.67
		c7.54,2.95,14.7,7.01,21.7,11.12c1.86,1.09,3.56,4.22,3.57,6.42C193.11,84.72,193.33,124.88,192.87,165.03z"/>
	<polygon class="st1" points="105.83,321.64 59.56,254.27 105.83,270.8 152.1,254.27 	"/>
</g>
<g class="st2">
	<path class="st3" d="M107.36,138.72"/>
</g>
<g class="st2">
	<path class="st4" d="M29.2,97.14c4.85-10.5,12.3-20.03,21.64-27.5c9.34-7.47,20.55-12.8,32.5-15.52c5.98-1.32,12.15-2,18.34-1.97
		c6.2,0.05,12.42,0.76,18.52,2.18c6.09,1.44,12.03,3.61,17.7,6.37c5.68,2.75,11.2,6.28,16.05,10.55
		c9.84,8.43,17.35,19.65,21.6,32.06c4.29,12.4,5.24,26.03,2.65,39.08c-1.28,6.52-3.44,12.89-6.38,18.87
		c-1.5,2.93-3.16,5.94-5.12,8.75c-1.96,2.81-4.09,5.5-6.45,8c-9.39,10.08-22.1,16.94-35.62,19.63c-6.76,1.36-13.75,1.68-20.64,0.9
		c-3.44-0.41-6.85-1.07-10.2-1.97c-3.34-0.94-6.6-2.12-9.77-3.52c-3.15-1.45-6.16-3.05-9.18-5.02c-2.98-1.95-5.79-4.19-8.37-6.67
		c-5.15-4.97-9.37-10.89-12.4-17.34c-3.05-6.45-4.91-13.44-5.47-20.55c-0.59-7.1,0.2-14.32,2.21-21.15c1-3.42,2.33-6.74,3.93-9.9
		c1.58-3.12,3.52-6.28,5.79-9.15c4.51-5.79,10.34-10.53,16.84-13.83c6.5-3.3,13.67-5.24,20.92-5.56c7.25-0.36,14.56,0.92,21.24,3.63
		c0.83,0.34,1.65,0.72,2.47,1.08l2.41,1.21l2.34,1.33c0.78,0.5,1.58,0.97,2.33,1.51c3.04,2.12,5.85,4.59,8.26,7.4
		c4.86,5.6,8.18,12.43,9.66,19.58c1.51,7.14,1.19,14.64-0.95,21.56c-1.09,3.45-2.59,6.75-4.46,9.8c-1.04,1.44-2.16,2.83-3.37,4.15
		c-1.23,1.3-2.56,2.52-3.96,3.65c-2.81,2.26-6.01,4.06-9.41,5.25c-3.39,1.18-6.98,1.71-10.43,1.5c-3.45-0.17-6.73-1.1-9.62-2.49
		c-2.89-1.41-5.38-3.34-7.43-5.55c5.87,1.38,11.53,1.2,16.07-0.53c4.57-1.7,7.97-4.82,10.47-8.45c1.22-1.86,2.24-3.85,3.07-5.94
		c0.99-1.96,1.74-4,2.23-6.09c0.94-4.18,0.88-8.55-0.27-12.63c-1.11-4.08-3.29-7.79-6.14-10.75c-1.41-1.5-3.04-2.77-4.78-3.86
		c-0.43-0.28-0.89-0.51-1.33-0.78l-1.46-0.74l-1.49-0.65c-0.51-0.19-1.01-0.4-1.52-0.57c-4.08-1.42-8.41-1.92-12.66-1.58
		c-4.26,0.34-8.42,1.64-12.11,3.68c-3.71,2.04-6.9,4.88-9.42,8.22c-1.26,1.67-2.31,3.46-3.3,5.5c-0.96,2-1.74,4.07-2.31,6.19
		c-2.28,8.48-1.51,17.79,2.33,25.7c1.9,3.96,4.51,7.54,7.66,10.56c3.12,3.09,6.8,5.42,11.04,7.42c8.35,3.85,17.86,4.97,26.96,3.37
		c9.11-1.61,17.7-6.07,24.3-12.61c1.66-1.63,3.16-3.42,4.57-5.28c1.41-1.86,2.59-3.88,3.81-6.03c2.26-4.3,4.09-8.83,5.25-13.57
		c1.14-4.74,1.74-9.64,1.61-14.56c-0.06-4.92-0.78-9.85-2.09-14.64c-1.35-4.78-3.27-9.42-5.8-13.74c-1.22-2.19-2.67-4.24-4.16-6.27
		c-1.56-1.96-3.17-3.92-4.99-5.68c-3.57-3.61-7.59-6.7-12.07-9.38c-4.48-2.7-9.27-4.89-14.26-6.59c-4.99-1.69-10.21-2.82-15.51-3.38
		c-5.3-0.56-10.71-0.61-16.09-0.02c-10.75,1.2-21.42,4.64-31,10.35C44.39,79.85,35.88,87.68,29.2,97.14z"/>
</g>
<path class="st5" d="M200.15,162.8c-1.45,30.25-61.4,103.14-94.33,103.14c-34.94,0-94.33-72.89-94.33-103.14V47.77
	c0-7.13,3.68-13.78,9.77-17.47C60.79,6.4,154.76,4.26,191.43,29.83c5.48,3.82,8.72,10.1,8.72,16.79V162.8z"/>
<polygon class="st6" points="105.83,321.64 59.56,254.27 105.83,270.8 152.1,254.27 "/>
</svg>
