<?xml version="1.0" encoding="utf-8"?>
<!-- Generator: Adobe Illustrator 23.0.2, SVG Export Plug-In . SVG Version: 6.00 Build 0)  -->
<svg version="1.1" id="Слой_1" xmlns="http://www.w3.org/2000/svg" xmlns:xlink="http://www.w3.org/1999/xlink" x="0px" y="0px"
	 viewBox="0 0 211.6 327.9" style="enable-background:new 0 0 211.6 327.9;" xml:space="preserve">
<style type="text/css">
	.st0{fill:#E6E6E6;}
	.st1{fill:#333333;}
</style>
<path class="st0" d="M105,11.5c-39.2,0.4-48,13.1-80,15.2c-1.6,0.1-4.8,0.3-7.8,2.3c-10.3,7-6.4,27.6-4.7,45.3
	c4.5,47.7-10,49.2-2.7,84.7c1.1,5.6,6.2,28.2,22.6,52.3c12.4,18.1,34.4,50.4,67.5,52.7c47.7,3.3,81.3-58.2,84.7-64.4
	c9.8-17.9,12.7-33.2,17.2-56.2c6.7-34.9,4.1-57.3,0.8-84.7c-1.4-12-2.9-18.9-8.2-25.4c-4.3-5.3-11.6-10.7-42.9-16.4
	C130.8,13.2,120.5,11.4,105,11.5z"/>
<path class="st1" d="M197.8,20.9c-19.1-13.3-52-20.7-90.4-20.3C70.5,1,36.3,8.6,15.8,21C6.4,26.8,0.5,37.3,0.5,48.4v115
	c0,20.8,19,50,36.7,70.4c11.5,13.3,41.4,44.2,68.7,44.2c26,0,55.8-30.9,67.4-44.1c17.8-20.3,37.1-49.4,38-69.9v-0.3l0.1-116.5
	C211.4,36.7,206.3,26.8,197.8,20.9z M47.4,210c-15.7-20.1-23.9-38.1-23.9-46.6v-115c0-3.1,1.6-6.1,4.2-7.7
	c16.8-10.2,47.5-16.8,79.9-17.1c0.9,0,1.7,0,2.6,0c32.1,0,59.8,6,74.4,16.2l0,0c2.3,1.6,3.7,4.4,3.7,7.3L188.2,163
	c-0.5,8.2-8.1,24.5-22.1,43c-1.8,1.1-15.2,20.7-15.8,20.4l-88.2,1.4"/>
<polygon class="st1" points="105.6,322.8 59.6,255.5 105.6,272 151.7,255.5 "/>
<path class="st1" d="M207.3,154.9c-0.5-18.1-0.1-36.3-0.1-54.5c0,0,0,0-0.1,0c0-21.2,0.1-42.3-0.2-63.5c0-2.8-1.5-6.7-3.6-8
	c-8.6-5.6-17.4-11.3-26.8-15.3C144.2-0.1,110.3-2.7,75.7,2.5c-23,3.4-44.6,10.3-63.9,23.8C7.1,29.5,4.9,33.2,4.9,39
	C5.2,76,5,113,5.1,150c0,4.7-0.1,9.4,0.5,14c2.3,19.4,11.3,35.6,24.5,49.7c20.4,21.7,44.9,37.5,71.8,49.7c2.6,1.2,6.8,1,9.4-0.3
	c8.8-4.2,17.5-8.9,25.9-13.8c20.8-12.1,39.3-26.8,53.9-46.2C201.8,188.8,207.8,173.1,207.3,154.9z M119.4,213c0,1.8,0,3.6,0,5.9
	c-8.8,0-17.3,0-26.4,0c0-3.7,0-7.3,0-11c0-10.2-0.1-20.3,0-30.5c0.1-8,5.3-13.6,12.7-14c7.1-0.4,13.3,5.3,13.5,13.1
	C119.6,188.7,119.4,200.9,119.4,213z M192.9,163.2c-0.1,12.2-6.1,22.8-13.7,32.1c-6.1,7.4-12.8,14.3-19.2,21.4
	c-0.5-0.3-1-0.5-1.6-0.8c-1.1-9.5-2.3-19.1-3.4-28.6c-2.2-18.5-4.5-37-6.6-55.5c0-0.2-0.1-0.4-0.1-0.5h10.9V73.5h-21.5v20.7h-21.6
	V73.5H95.7v20.8H74.1V73.5H52.9v57.8h10.4c-0.1,0.4-0.2,0.9-0.3,1.4c-1.7,15.2-3.3,30.4-5.1,45.6c-1.3,11.6-2.7,23.1-4.1,34.7
	c-0.1,0.8-0.5,1.5-1,2.8c-18.2-16.1-33.4-33.4-33.6-59.1c-0.3-37.7-0.1-75.3-0.2-113c0-4.6,2.5-7.3,6.2-9.5
	c16-9.4,33.3-15,51.5-17.8c31-4.8,61.4-2.9,90.8,8.7c7.5,3,14.7,7,21.7,11.1c1.9,1.1,3.6,4.2,3.6,6.4
	C193.1,82.9,193.3,123,192.9,163.2z"/>
</svg>
