<?xml version="1.0" encoding="utf-8"?>
<!-- Generator: Adobe Illustrator 23.0.2, SVG Export Plug-In . SVG Version: 6.00 Build 0)  -->
<svg version="1.1" id="Слой_1" xmlns="http://www.w3.org/2000/svg" xmlns:xlink="http://www.w3.org/1999/xlink" x="0px" y="0px"
	 viewBox="0 0 211.6 327.9" style="enable-background:new 0 0 211.6 327.9;" xml:space="preserve">
<style type="text/css">
	.st0{display:none;}
	.st1{display:inline;fill:#FFFFFF;stroke:#3C3C3B;stroke-width:23;stroke-miterlimit:10;}
	.st2{display:inline;fill:#3C3C3B;}
	.st3{display:inline;}
	.st4{fill:#662483;}
	.st5{display:inline;fill:#FFFFFF;stroke:#662483;stroke-width:23;stroke-miterlimit:10;}
	.st6{display:inline;fill:#662483;stroke:#662483;stroke-miterlimit:10;}
	.st7{display:inline;fill:#662483;}
	.st8{display:inline;fill:#0071BC;}
	.st9{display:inline;fill:#FFFFFF;}
	.st10{fill:#0071BC;}
</style>
<g id="Крепость" class="st0">
	<path class="st1" d="M200.1,162.8c-1.4,30.3-61.4,103.1-94.3,103.1c-34.9,0-94.3-72.9-94.3-103.1v-115c0-7.1,3.7-13.8,9.8-17.5
		c39.5-23.9,133.5-26,170.2-0.5c5.5,3.8,8.7,10.1,8.7,16.8V162.8z"/>
	<path class="st2" d="M207.3,156.8c-0.5-18.1-0.1-36.3-0.1-54.5c0,0,0,0-0.1,0c0-21.2,0.1-42.3-0.2-63.5c0-2.8-1.5-6.7-3.6-8
		c-8.6-5.6-17.4-11.3-26.8-15.3C144.2,1.7,110.3-0.9,75.7,4.3c-23,3.4-44.6,10.3-63.9,23.7C7.1,31.3,4.9,35,4.9,40.9
		c0.2,37,0.1,73.9,0.1,110.9c0,4.7-0.1,9.4,0.5,14c2.3,19.4,11.3,35.6,24.5,49.7c20.4,21.7,44.9,37.5,71.8,49.7
		c2.6,1.2,6.8,1,9.4-0.3c8.8-4.2,17.5-8.9,25.9-13.8c20.8-12.1,39.3-26.8,53.9-46.2C201.8,190.7,207.8,175,207.3,156.8z
		 M119.4,214.9c0,1.8,0,3.6,0,5.9c-8.8,0-17.3,0-26.4,0c0-3.7,0-7.3,0-11c0-10.2-0.1-20.3,0-30.5c0.1-8,5.3-13.6,12.7-14
		c7.1-0.4,13.3,5.3,13.5,13.1C119.6,190.6,119.4,202.7,119.4,214.9z M192.9,165c-0.1,12.2-6.1,22.8-13.7,32.1
		c-6.1,7.4-12.8,14.3-19.2,21.4c-0.5-0.3-1-0.5-1.6-0.8c-1.1-9.5-2.3-19.1-3.4-28.6c-2.2-18.5-4.5-37-6.6-55.5
		c0-0.2-0.1-0.4-0.1-0.5h10.9V75.3h-21.5V96h-21.6V75.3H95.7v20.8H74.1V75.3H52.9v57.8h10.4c-0.1,0.4-0.2,0.9-0.3,1.4
		c-1.7,15.2-3.3,30.4-5.1,45.6c-1.3,11.6-2.7,23.1-4.1,34.7c-0.1,0.8-0.5,1.5-1,2.8c-18.2-16.1-33.4-33.4-33.6-59.1
		c-0.3-37.7-0.1-75.3-0.2-113c0-4.6,2.5-7.3,6.2-9.5c16-9.4,33.3-15,51.5-17.8c31-4.7,61.4-2.8,90.8,8.7c7.5,3,14.7,7,21.7,11.1
		c1.9,1.1,3.6,4.2,3.6,6.4C193.1,84.7,193.3,124.9,192.9,165z"/>
	<polygon class="st2" points="105.8,321.6 59.6,254.3 105.8,270.8 152.1,254.3 	"/>
</g>
<g id="Щит_Спираль" class="st0">
	<g class="st3">
		<path class="st4" d="M29.2,97.1c4.8-10.5,12.3-20,21.6-27.5s20.5-12.8,32.5-15.5c6-1.3,12.2-2,18.3-2c6.2,0,12.4,0.8,18.5,2.2
			c6.1,1.4,12,3.6,17.7,6.4c5.7,2.8,11.2,6.3,16.1,10.6c9.8,8.4,17.4,19.7,21.6,32.1c4.3,12.4,5.2,26,2.6,39.1
			c-1.3,6.5-3.4,12.9-6.4,18.9c-1.5,2.9-3.2,5.9-5.1,8.8c-2,2.8-4.1,5.5-6.4,8c-9.4,10.1-22.1,16.9-35.6,19.6
			c-6.8,1.4-13.8,1.7-20.6,0.9c-3.4-0.4-6.8-1.1-10.2-2c-3.3-0.9-6.6-2.1-9.8-3.5c-3.2-1.4-6.2-3.1-9.2-5c-3-1.9-5.8-4.2-8.4-6.7
			c-5.2-5-9.4-10.9-12.4-17.3c-3-6.4-4.9-13.4-5.5-20.6c-0.6-7.1,0.2-14.3,2.2-21.2c1-3.4,2.3-6.7,3.9-9.9c1.6-3.1,3.5-6.3,5.8-9.2
			c4.5-5.8,10.3-10.5,16.8-13.8s13.7-5.2,20.9-5.6c7.3-0.4,14.6,0.9,21.2,3.6c0.8,0.3,1.7,0.7,2.5,1.1l2.4,1.2l2.3,1.3
			c0.8,0.5,1.6,1,2.3,1.5c3,2.1,5.9,4.6,8.3,7.4c4.9,5.6,8.2,12.4,9.7,19.6c1.5,7.1,1.2,14.6-0.9,21.6c-1.1,3.4-2.6,6.8-4.5,9.8
			c-1,1.4-2.2,2.8-3.4,4.1c-1.2,1.3-2.6,2.5-4,3.6c-2.8,2.3-6,4.1-9.4,5.3c-3.4,1.2-7,1.7-10.4,1.5c-3.4-0.2-6.7-1.1-9.6-2.5
			c-2.9-1.4-5.4-3.3-7.4-5.6c5.9,1.4,11.5,1.2,16.1-0.5c4.6-1.7,8-4.8,10.5-8.4c1.2-1.9,2.2-3.9,3.1-5.9c1-2,1.7-4,2.2-6.1
			c0.9-4.2,0.9-8.6-0.3-12.6c-1.1-4.1-3.3-7.8-6.1-10.8c-1.4-1.5-3-2.8-4.8-3.9c-0.4-0.3-0.9-0.5-1.3-0.8l-1.5-0.7l-1.5-0.7
			c-0.5-0.2-1-0.4-1.5-0.6c-4.1-1.4-8.4-1.9-12.7-1.6c-4.3,0.3-8.4,1.6-12.1,3.7c-3.7,2-6.9,4.9-9.4,8.2c-1.3,1.7-2.3,3.5-3.3,5.5
			c-1,2-1.7,4.1-2.3,6.2c-2.3,8.5-1.5,17.8,2.3,25.7c1.9,4,4.5,7.5,7.7,10.6c3.1,3.1,6.8,5.4,11,7.4c8.3,3.9,17.9,5,27,3.4
			c9.1-1.6,17.7-6.1,24.3-12.6c1.7-1.6,3.2-3.4,4.6-5.3s2.6-3.9,3.8-6c2.3-4.3,4.1-8.8,5.3-13.6c1.1-4.7,1.7-9.6,1.6-14.6
			c-0.1-4.9-0.8-9.8-2.1-14.6c-1.4-4.8-3.3-9.4-5.8-13.7c-1.2-2.2-2.7-4.2-4.2-6.3c-1.6-2-3.2-3.9-5-5.7c-3.6-3.6-7.6-6.7-12.1-9.4
			c-4.5-2.7-9.3-4.9-14.3-6.6c-5-1.7-10.2-2.8-15.5-3.4s-10.7-0.6-16.1,0C74.2,65,63.6,68.4,54,74.2C44.4,79.8,35.9,87.7,29.2,97.1z
			"/>
	</g>
	<path class="st5" d="M200.1,162.8c-1.4,30.3-61.4,103.1-94.3,103.1c-34.9,0-94.3-72.9-94.3-103.1v-115c0-7.1,3.7-13.8,9.8-17.5
		c39.5-23.9,133.5-26,170.2-0.5c5.5,3.8,8.7,10.1,8.7,16.8V162.8z"/>
	<polygon class="st6" points="105.8,321.6 59.6,254.3 105.8,270.8 152.1,254.3 	"/>
</g>
<g id="Спираль" class="st0">
	<polygon class="st7" points="105.8,321.6 59.6,254.3 105.8,270.8 152.1,254.3 	"/>
	<path class="st7" d="M4.8,117.6c6.5-14,16.5-26.8,28.9-36.8S61.3,63.7,77.2,60c8-1.8,16.3-2.7,24.5-2.6c8.3,0.1,16.6,1,24.8,2.9
		c8.1,1.9,16.1,4.8,23.7,8.5c7.6,3.7,15,8.4,21.5,14.1c13.2,11.3,23.2,26.3,28.9,42.9c5.7,16.6,7,34.8,3.5,52.3
		c-1.7,8.7-4.6,17.2-8.5,25.2c-2,3.9-4.2,7.9-6.9,11.7c-2.6,3.8-5.5,7.4-8.6,10.7c-12.6,13.5-29.6,22.6-47.6,26.3
		c-9,1.8-18.4,2.3-27.6,1.2c-4.6-0.6-9.2-1.4-13.6-2.6c-4.5-1.3-8.8-2.8-13.1-4.7c-4.2-1.9-8.2-4.1-12.3-6.7
		c-4-2.6-7.7-5.6-11.2-8.9c-6.9-6.6-12.5-14.6-16.6-23.2c-4.1-8.6-6.6-18-7.3-27.5c-0.8-9.5,0.3-19.1,3-28.3c1.3-4.6,3.1-9,5.3-13.2
		c2.1-4.2,4.7-8.4,7.7-12.2c6-7.7,13.8-14.1,22.5-18.5s18.3-7,28-7.4c9.7-0.5,19.5,1.2,28.4,4.8c1.1,0.4,2.2,1,3.3,1.4l3.2,1.6
		l3.1,1.8c1,0.7,2.1,1.3,3.1,2c4.1,2.8,7.8,6.1,11.1,9.9c6.5,7.5,10.9,16.6,12.9,26.2c2,9.6,1.6,19.6-1.3,28.8
		c-1.5,4.6-3.5,9-6,13.1c-1.4,1.9-2.9,3.8-4.5,5.6c-1.6,1.7-3.4,3.4-5.3,4.9c-3.8,3-8,5.4-12.6,7c-4.5,1.6-9.3,2.3-13.9,2
		c-4.6-0.2-9-1.5-12.9-3.3c-3.9-1.9-7.2-4.5-9.9-7.4c7.8,1.9,15.4,1.6,21.5-0.7c6.1-2.3,10.7-6.4,14-11.3c1.6-2.5,3-5.1,4.1-7.9
		c1.3-2.6,2.3-5.4,3-8.1c1.3-5.6,1.2-11.4-0.4-16.9c-1.5-5.5-4.4-10.4-8.2-14.4c-1.9-2-4.1-3.7-6.4-5.2c-0.6-0.4-1.2-0.7-1.8-1
		l-1.9-1l-2-0.9c-0.7-0.3-1.3-0.5-2-0.8c-5.5-1.9-11.3-2.6-16.9-2.1c-5.7,0.5-11.3,2.2-16.2,4.9c-5,2.7-9.2,6.5-12.6,11
		c-1.7,2.2-3.1,4.6-4.4,7.4c-1.3,2.7-2.3,5.4-3.1,8.3c-3,11.3-2,23.8,3.1,34.4c2.5,5.3,6,10.1,10.2,14.1c4.2,4.1,9.1,7.3,14.8,9.9
		c11.2,5.1,23.9,6.6,36.1,4.5c12.2-2.1,23.7-8.1,32.5-16.9c2.2-2.2,4.2-4.6,6.1-7.1c1.9-2.5,3.5-5.2,5.1-8.1c3-5.8,5.5-11.8,7-18.1
		c1.5-6.3,2.3-12.9,2.1-19.5c-0.1-6.6-1-13.2-2.8-19.6c-1.8-6.4-4.4-12.6-7.8-18.4c-1.6-2.9-3.6-5.7-5.6-8.4
		c-2.1-2.6-4.2-5.2-6.7-7.6c-4.8-4.8-10.1-9-16.1-12.5c-6-3.6-12.4-6.5-19.1-8.8c-6.7-2.3-13.7-3.8-20.7-4.5s-14.3-0.8-21.5,0
		C65.1,74.6,50.8,79.2,38,86.9C25.1,94.4,13.8,104.9,4.8,117.6z"/>
</g>
<g class="st0">
	<polygon class="st8" points="105.8,321.6 59.6,254.3 105.8,270.8 152.1,254.3 	"/>
	<path class="st9" d="M93.2,217.1c0-5.2,0-10.4,0-15.6c0-3.6,1.6-5.2,5.2-5.2c5.2,0,10.4,0,15.6,0c3.4,0,5.1,1.5,5.1,4.9
		c0.1,10.8,0,21.7,0,32.5c0,1.3-0.5,1.6-1.7,1.6c-7.5,0-15,0-22.5,0c-1.5,0-1.8-0.6-1.8-1.9C93.3,228,93.2,222.5,93.2,217.1z"/>
	<path class="st9" d="M64,222.3c-2.6,0-5.3,0-7.9,0c-1.3,0-1.8-0.3-1.8-1.7c0.1-5.2-0.1-10.4,0.1-15.6c0.1-5.2,5.9-9.3,11-8.5
		c5.2,0.7,8.6,5.3,8.5,10.6c-0.1,4.5-0.1,8.9,0,13.4c0,1.4-0.5,1.9-1.9,1.9C69.2,222.2,66.6,222.3,64,222.3z"/>
	<path class="st9" d="M148.4,222.3c-2.7,0-5.4,0-8.1,0c-1.1,0-1.6-0.4-1.6-1.5c0-5.3-0.1-10.7,0.1-16c0.2-5,6-9.3,11-8.2
		c5.8,1.3,8.4,4.5,8.4,10.3c0,4.3-0.1,8.7,0,13c0,1.8-0.4,2.6-2.4,2.4C153.4,222.2,150.9,222.3,148.4,222.3
		C148.4,222.3,148.4,222.3,148.4,222.3z"/>
	<path class="st9" d="M105.7,150.8c-4,0.1-9.4-4.3-9.2-9.9c0.2-5.1,4.5-9.6,9.5-9.5c6.1,0.1,10,4,10,9.5
		C115.8,146.6,112.5,150.6,105.7,150.8z"/>
	<path class="st8" d="M187.3,182.5c-15.5-10.1-30.9-20.2-46.4-30.3c-1.5-1-2.2-2-2.2-3.9c0.1-6.6,0-13.3,0.1-19.9
		c0-2.6-0.8-4.6-2.7-6.5c-7.1-6.9-23.3-23.1-30.2-30.1l-8.7,9.2c-6.7,6.8-13.4,13.5-20.1,20.2c-2.2,2.2-3.5,4.5-3.4,7.8
		c0.2,6.5,0,13,0.1,19.5c0,1.6-0.5,2.6-1.8,3.5c-7.8,5-15.5,10.1-23.3,15.2c-8.1,5.3-16.2,10.6-24.3,15.9c-2.5,1.6-3.2,3.7-2.1,6
		c0.9,1.8,2,3.6,3.1,5.2c1.4,2.1,3.4,2.5,5.7,1.3c0.6-0.3,1.1-0.7,1.7-1.1c0.5-0.3,1.1-0.5,1.6-0.7c0.1,0.6,0.3,1.1,0.3,1.7
		c0,12.5,0,25.1,0,37.6c0,1.7-0.6,2.2-2.2,2.2c-2.6,0-4.2,1.8-4.3,4.4c0,0.9,0.1,1.8,0,2.6c-0.5,4,2,6,5.9,6
		c24-0.1,48.1-0.1,72.1-0.1c14.2,0,28.3,0,42.5,0c10.2,0,20.3,0,30.5,0c2.8,0,4.6-1.2,4.9-3.5c0.2-1.8,0.2-3.7,0-5.5
		c-0.3-2.6-1.4-3.8-4.1-3.9c-2.2-0.1-2.3-1.1-2.3-2.8c0-11.8,0-23.7,0-35.5c0-1.1,0.2-2.1,0.3-3.2c0.9,0.5,1.9,0.9,2.8,1.4
		c2.8,1.7,4.9,1.2,6.7-1.6c0.6-0.9,1.1-1.9,1.7-2.8C191.6,186.8,191.2,185.1,187.3,182.5z M73.8,220.5c0,1.4-0.5,1.9-1.9,1.9
		c-2.6-0.1-5.3,0-7.9,0c-2.6,0-5.3,0-7.9,0c-1.3,0-1.8-0.3-1.8-1.7c0.1-5.2-0.1-10.4,0.1-15.6c0.1-5.2,5.9-9.3,11-8.5
		c5.2,0.7,8.6,5.3,8.5,10.6C73.6,211.5,73.7,216,73.8,220.5z M105.9,131.3c6.1,0.1,10,4,10,9.5c-0.1,5.7-3.4,9.7-10.2,9.9
		c-4,0.1-9.4-4.3-9.2-9.9C96.6,135.8,100.9,131.2,105.9,131.3z M117.6,235.3c-7.5,0-15,0-22.5,0c-1.5,0-1.8-0.6-1.8-1.9
		c0-5.4,0-10.8,0-16.2c0-5.2,0-10.4,0-15.6c0-3.6,1.6-5.2,5.2-5.2c5.2,0,10.4,0,15.6,0c3.4,0,5.1,1.5,5.1,4.9
		c0.1,10.8,0,21.7,0,32.5C119.3,234.9,118.7,235.3,117.6,235.3z M155.9,222.3c-2.5-0.2-5,0-7.5,0c0,0,0,0,0,0c-2.7,0-5.4,0-8.1,0
		c-1.1,0-1.6-0.4-1.6-1.5c0-5.3-0.1-10.7,0.1-16c0.2-5,6-9.3,11-8.2c5.8,1.3,8.4,4.5,8.4,10.3c0,4.3-0.1,8.7,0,13
		C158.3,221.7,157.9,222.5,155.9,222.3z"/>
</g>
<g>
	<polygon class="st10" points="105.8,321.6 59.6,254.3 105.8,270.8 152.1,254.3 	"/>
</g>
<path class="st10" d="M116.8,15.5c-2.3-2.3-4.5-4.5-6.5-6.5c-2.4-2.4-6.3-2.4-8.7-0.1l-6.9,6.6c-7.6,7.8-15.3,15.5-22.9,23.2
	c-4,4-8,8-11.9,11.9c-1.5,1.5-2.1,3.4-1.3,5.4c0.7,2,2.4,2.8,4.5,2.8c1.4,0,2.8,0.2,4.2,0.3c0.1,0.4,0.2,0.7,0.2,1
	c0,11.2,0,22.4,0,33.5c0,0.7-0.5,1.7-1.1,2.2c-8.9,7.8-17.8,15.5-26.7,23.2c-7.1,6.2-14.2,12.2-21.2,18.5c-4.5,4-6.3,9.1-4.6,15
	c1.6,5.5,5.4,8.7,10.9,9.8c2.2,0.4,4.4,0.5,6.8,0.8c0,0.8,0,1.7,0,2.6c0,24.5,0,49,0,73.5c0,3,0.8,5.4,3.7,6.8c16.5,0,32.9,0,49.4,0
	c0-11,0.1-22,0.2-32.9c0-5.8-0.1-11.6,0.4-17.4c0.6-8.1,5.2-13.8,12.5-17c7.2-3.1,14.3-2.3,20.8,2.3c6.7,4.7,9,11.5,9,19.3
	c0,14.2,0,28.4-0.1,42.6c0,1.1,0.1,2.1,0.2,3.2c16.5,0,32.9,0,49.4,0c2.3-1.2,3.6-3,3.6-5.8c0-14.5,0-29,0-43.4c0-11.2,0-22.5,0-34
	c1.5,0,2.8,0,4.1,0c11.3-0.2,18-12.1,12-21.7c-1.6-2.6-4.2-4.6-6.5-6.7c-14.6-12.8-29.2-25.5-43.8-38.3c-0.9-0.8-1.6-2.3-1.6-3.6
	c-0.1-9.5-0.1-19-0.1-28.4c0-1.7,0-3.3,0-5.3c1.3,0,2.2,0,3.2,0c2.4,0,4.8-0.3,5.7-2.9c0.9-2.5-0.4-4.3-2.2-6.1 M118.3,83.1
	c0,3,0,6.1,0,9.1c0,3.5-1,4.6-4.3,4.6c-5.4,0-10.7,0-16.1,0c-2.5,0-4-1.1-4-3.6c0-7.4-0.2-14.8,0.3-22.2c0.3-5.7,5.8-10,11.7-10.1
	c5.8-0.1,11.1,4,11.8,9.6c0.6,4.1,0.5,8.4,0.8,12.5C118.5,83.1,118.4,83.1,118.3,83.1z"/>
</svg>
