<?xml version="1.0" encoding="utf-8"?>
<!-- Generator: Adobe Illustrator 23.0.2, SVG Export Plug-In . SVG Version: 6.00 Build 0)  -->
<svg version="1.1" id="Слой_1" xmlns="http://www.w3.org/2000/svg" xmlns:xlink="http://www.w3.org/1999/xlink" x="0px" y="0px"
	 viewBox="0 0 211.6 327.9" style="enable-background:new 0 0 211.6 327.9;" xml:space="preserve">
<style type="text/css">
	.st0{fill:#333333;}
</style>
<g>
	<g>
		<path class="st0" d="M208.6,103c-4.9-1.1-9.7-2.3-14.5-3.1c-10.5-1.7-19.6,1.1-27.3,8.8c-8.5,8.4-17.8,15.9-28.9,20.8
			c-12.5,5.5-22.6,4.1-31.4-6.3c-7.5-8.9-21.2-11-31.9-3.8c-6.1,4.1-10.2,9.8-11,17.9c-2.3,24.2-5.6,48.3-8.4,72.4
			c-0.9,7.3-1.6,14.5-2.5,21.7c-4.4,0.7-4.8,0.5-4.3-3.6c2-17.2,4-34.4,6-51.7c1.6-13.4,3.1-26.8,4.7-40.2c2.7-23.1,5.3-46.2,8-69.3
			c0.2-1.5,0.6-3,0.9-4.6c1.3,0,2.5,0,4.2,0c0,1.9,0,3.6,0,5.7c3.5-0.4,6.6-0.7,9.7-1c8.2-0.9,16.4-0.7,23.5,4.1
			c3.2,2.2,6,5.4,8.1,8.8c5.7,9.1,16,12.4,25.9,7.9c5.2-2.4,10.3-5.4,15.8-7c15.5-4.4,29.7-1.2,41.8,9.5c4.1,3.6,7.5,7.9,11.1,12
			C208.5,102.4,208.5,102.8,208.6,103z"/>
	</g>
	<polygon class="st0" points="105.8,270.8 59.6,254.3 105.8,321.6 152.1,254.3 	"/>
</g>
</svg>
