<?xml version="1.0" encoding="utf-8"?>
<!-- Generator: Adobe Illustrator 23.0.2, SVG Export Plug-In . SVG Version: 6.00 Build 0)  -->
<svg version="1.1" id="Слой_1" xmlns="http://www.w3.org/2000/svg" xmlns:xlink="http://www.w3.org/1999/xlink" x="0px" y="0px"
	 viewBox="0 0 211.6 327.9" style="enable-background:new 0 0 211.6 327.9;" xml:space="preserve">
<style type="text/css">
	.st0{fill:#006837;}
	.st1{fill:#FFFFFF;stroke:#006837;stroke-width:23;stroke-miterlimit:10;}
</style>
<g>
	<polygon class="st0" points="105.8,321.6 59.6,254.3 105.8,270.8 152.1,254.3 	"/>
	<circle class="st1" cx="106.3" cy="139.9" r="91.9"/>
	<path class="st0" d="M49.7,225.5c-0.9,0-1.7-0.8-1.7-1.7v-11.2c0-0.1,0-0.3,0.1-0.4c0-0.1,0.1-0.3,0.1-0.5
		c-0.1-12.4-0.1-25.4,0-39.9c0-0.6-0.1-0.6-0.4-0.7c-0.9-0.3-1.6-0.6-2.5-0.9l-0.4-0.2c-0.4-0.2-0.8-0.6-1-1.1
		c-0.1-0.5-0.1-1,0.1-1.4c0.1-0.2,0.3-0.4,0.4-0.6c1.6-2.1,3.2-4.3,4.8-6.5c4.5-6.1,9.1-12.3,13.9-18.4c0.3-0.4,0.5-0.6,0.6-1
		c0.3-0.6,0.9-0.9,1.5-0.9h51.9c0-0.1,0-0.1,0-0.1l0.1-10.6c0.1-9.3,0.1-18.5,0.1-27.8c0-0.5,0-0.6-0.5-0.7
		c-1.1-0.4-2.2-0.8-3.4-1.3l-0.9-0.4c-0.9-0.4-1.3-1.4-0.9-2.2l1.1-2.8c0.9-2.2,1.7-4.4,2.6-6.6l3.4-8.6c3.4-8.8,6.8-17.6,10.2-26.4
		c0.4-0.9,0.5-1.9,0.6-2.8l1.1-0.1h-1.1c0-0.9,0.8-1.7,1.7-1.7h13.3c2.5,0,5.1,0,7.6,0c1,0,2.1,0.2,2.6,1.9
		c3.8,11.8,7.6,23.5,11.4,35.2l3.6,11c0.1,0.2,0.1,0.4,0.1,0.6c0.1,0.5,0,1.1-0.3,1.5c-0.4,0.4-0.8,0.6-1.4,0.6h-5.4v48.3
		c0,0.1,0.1,0.2,0.1,0.3v72.7c0,0.3-0.1,0.6-0.4,0.8c-0.2,0.2-0.5,0.3-0.7,0.3c0,0,0,0-0.1,0c-10.1-0.5-20.6-0.8-31.3-0.8
		c-6.4,0-13,0.1-19.6,0.3c-17.3,0.5-33.1,1.5-48.2,3.1c-4.4,0.5-8.6,1-12.5,1.5C49.9,225.5,49.8,225.5,49.7,225.5z M67.4,153.9
		c-3.6,4.9-7.5,9.9-11.1,14.8c-0.3,0.4-0.4,1-0.4,1.6c-0.1,9.6-0.1,19.3-0.1,28.7v5c0,1.8,0,3.6,0,5.5v1.4l9.1-1.5v-14.9
		c0,0,0-4.2,0-5.1c0-3.8,2.6-6.4,6.4-6.5h0.1c3.4,0,6.1,2.9,6.1,6.4c0,4.2,0,8.4,0,12.6v5.8l9.7-1v-4.1c0-10.8,0-22,0-33
		c0-0.2-0.2-0.6-0.5-1c-5-5.5-10.1-11.1-15-16.6l-1.5-1.7L67.4,153.9z M125.8,194.9v-2.5c0-2.7,0-5.4,0-8.1c0-0.9-0.2-2.9-2.4-2.9
		v-1.1v1.1c-1.5,0-2.4,1.1-2.4,2.8c0,3.1,0,6.2,0,9.3v1.3c0,0.1,0,0.1,0,0.1L125.8,194.9L125.8,194.9z M110.5,194.9
		c0-0.9,0-1.8,0-2.6c0-3,0-5.9-0.1-8.7c0-1.3-1.2-2.1-2.4-2.1v-1.1v1.1c-1.1,0-2.3,0.8-2.3,2c-0.1,2.9-0.1,5.9-0.1,8.9
		c0,0.9,0,1.7,0,2.6L110.5,194.9L110.5,194.9z M127,140.3c1.2,0,1.9,0.7,2.4,1.4c3.1,4.1,6.3,8.2,9.3,12.2l1.6,2V98.6
		c0-0.9,0.7-1.6,1.6-1.7h0.1l-10.8-29.2l-9.8,25.5h1.8c0.9,0,1.7,0.8,1.7,1.7v45.4c0.3,0,0.5,0,0.7,0c0.4,0,0.6,0,0.9-0.1
		C126.7,140.3,126.9,140.3,127,140.3z"/>
</g>
</svg>
