<?xml version="1.0" encoding="utf-8"?>
<!-- Generator: Adobe Illustrator 23.0.2, SVG Export Plug-In . SVG Version: 6.00 Build 0)  -->
<svg version="1.1" id="Слой_1" xmlns="http://www.w3.org/2000/svg" xmlns:xlink="http://www.w3.org/1999/xlink" x="0px" y="0px"
	 viewBox="0 0 211.6 327.9" style="enable-background:new 0 0 211.6 327.9;" xml:space="preserve">
<style type="text/css">
	.st0{fill:#E6E6E6;}
	.st1{fill:#333333;}
</style>
<path class="st0" d="M105,11.5c-39.2,0.4-48,13.1-80,15.2c-1.6,0.1-4.8,0.3-7.8,2.3c-10.3,7-6.4,27.6-4.7,45.3
	c4.5,47.7-10,49.2-2.7,84.7c1.1,5.6,6.2,28.2,22.6,52.3c12.4,18.1,34.4,50.4,67.5,52.7c47.7,3.3,81.3-58.2,84.7-64.4
	c9.8-17.9,12.7-33.2,17.2-56.2c6.7-34.9,4.1-57.3,0.8-84.7c-1.4-12-2.9-18.9-8.2-25.4c-4.3-5.3-11.6-10.7-42.9-16.4
	C130.8,13.2,120.5,11.4,105,11.5z"/>
<path class="st1" d="M197.8,20.9c-19.1-13.3-52-20.7-90.4-20.3C70.5,1,36.3,8.6,15.8,21C6.4,26.8,0.5,37.3,0.5,48.4v115
	c0,20.8,19,50,36.7,70.4c11.5,13.3,41.4,44.2,68.7,44.2c26,0,55.8-30.9,67.4-44.1c17.8-20.3,37.1-49.4,38-69.9v-0.3l0.1-116.5
	C211.4,36.7,206.3,26.8,197.8,20.9z M47.4,210c-15.7-20.1-23.9-38.1-23.9-46.6v-115c0-3.1,1.6-6.1,4.2-7.7
	c16.8-10.2,47.5-16.8,79.9-17.1c0.9,0,1.7,0,2.6,0c32.1,0,59.8,6,74.4,16.2l0,0c2.3,1.6,3.7,4.4,3.7,7.3L188.2,163
	c-0.5,8.2-8.1,24.5-22.1,43c-1.8,1.1-15.2,20.7-15.8,20.4l-88.2,1.4"/>
<polygon class="st1" points="105.6,322.8 59.6,255.5 105.6,272 151.7,255.5 "/>
<path class="st1" d="M45.4,232.5c-1,0-1.8-0.9-1.8-1.8v-12.1c0-0.1,0-0.3,0.1-0.4c0-0.1,0.1-0.3,0.1-0.5c-0.1-13.4-0.1-27.5,0-43.2
	c0-0.7-0.1-0.7-0.4-0.8c-1-0.3-1.7-0.7-2.7-1l-0.4-0.2c-0.4-0.2-0.9-0.7-1.1-1.2c-0.1-0.5-0.1-1.1,0.1-1.5c0.1-0.2,0.3-0.4,0.4-0.7
	c1.7-2.3,3.5-4.7,5.2-7c4.9-6.6,9.9-13.3,15.1-19.9c0.3-0.4,0.5-0.7,0.7-1.1c0.3-0.7,1-1,1.6-1h56.2c0-0.1,0-0.1,0-0.1l0.1-11.5
	c0.1-10.1,0.1-20,0.1-30.1c0-0.5,0-0.7-0.5-0.8c-1.2-0.4-2.4-0.9-3.7-1.4l-1-0.4c-1-0.4-1.4-1.5-1-2.4l1.2-3c1-2.4,1.8-4.8,2.8-7.2
	l3.7-9.3c3.7-9.5,7.4-19.1,11.1-28.6c0.4-1,0.5-2.1,0.7-3l1.2-0.1H132c0-1,0.9-1.8,1.8-1.8h14.4c2.7,0,5.5,0,8.2,0
	c1.1,0,2.3,0.2,2.8,2.1c4.1,12.8,8.2,25.5,12.4,38.1l3.9,11.9c0.1,0.2,0.1,0.4,0.1,0.7c0.1,0.5,0,1.2-0.3,1.6
	c-0.4,0.4-0.9,0.7-1.5,0.7h-5.9v52.3c0,0.1,0.1,0.2,0.1,0.3v78.8c0,0.3-0.1,0.7-0.4,0.9c-0.2,0.2-0.5,0.3-0.8,0.3c0,0,0,0-0.1,0
	c-10.9-0.5-22.3-0.9-33.9-0.9c-6.9,0-14.1,0.1-21.2,0.3c-18.7,0.5-35.9,1.6-52.2,3.4c-4.8,0.5-9.3,1.1-13.5,1.6
	C45.7,232.5,45.6,232.5,45.4,232.5z M64.6,154.9c-3.9,5.3-8.1,10.7-12,16c-0.3,0.4-0.4,1.1-0.4,1.7c-0.1,10.4-0.1,20.9-0.1,31.1v5.4
	c0,2,0,3.9,0,6v1.5L62,215v-16.1c0,0,0-4.6,0-5.5c0-4.1,2.8-6.9,6.9-7H69c3.7,0,6.6,3.1,6.6,6.9c0,4.6,0,9.1,0,13.7v6.3l10.5-1.1
	v-4.4c0-11.7,0-23.8,0-35.8c0-0.2-0.2-0.7-0.5-1.1c-5.4-6-10.9-12-16.3-18l-1.6-1.8L64.6,154.9z M127.9,199.3v-2.7
	c0-2.9,0-5.9,0-8.8c0-1-0.2-3.1-2.6-3.1v-1.2v1.2c-1.6,0-2.6,1.2-2.6,3c0,3.4,0,6.7,0,10.1v1.4c0,0.1,0,0.1,0,0.1H127.9L127.9,199.3
	z M111.3,199.3c0-1,0-2,0-2.8c0-3.3,0-6.4-0.1-9.4c0-1.4-1.3-2.3-2.6-2.3v-1.2v1.2c-1.2,0-2.5,0.9-2.5,2.2c-0.1,3.1-0.1,6.4-0.1,9.6
	c0,1,0,1.8,0,2.8L111.3,199.3L111.3,199.3z M129.2,140.1c1.3,0,2.1,0.8,2.6,1.5c3.4,4.4,6.8,8.9,10.1,13.2l1.7,2.2V94.9
	c0-1,0.8-1.7,1.7-1.8h0.1l-11.7-31.6l-10.6,27.6h2c1,0,1.8,0.9,1.8,1.8v49.2c0.3,0,0.5,0,0.8,0c0.4,0,0.7,0,1-0.1
	C128.9,140.1,129.1,140.1,129.2,140.1z"/>
</svg>
