<?xml version="1.0" encoding="utf-8"?>
<!-- Generator: Adobe Illustrator 23.0.2, SVG Export Plug-In . SVG Version: 6.00 Build 0)  -->
<svg version="1.1" id="Слой_1" xmlns="http://www.w3.org/2000/svg" xmlns:xlink="http://www.w3.org/1999/xlink" x="0px" y="0px"
	 viewBox="0 0 211.6 327.9" style="enable-background:new 0 0 211.6 327.9;" xml:space="preserve">
<style type="text/css">
	.st0{fill:#E6E6E6;}
	.st1{fill:#333333;}
</style>
<path class="st0" d="M105,11.5c-39.2,0.4-48,13.1-80,15.2c-1.6,0.1-4.8,0.3-7.8,2.3c-10.3,7-6.4,27.6-4.7,45.3
	C17,122,2.5,123.5,9.8,159c1.1,5.6,6.2,28.2,22.6,52.3c12.4,18.1,34.4,50.4,67.5,52.7c47.7,3.3,81.3-58.2,84.7-64.4
	c9.8-17.9,12.7-33.2,17.2-56.2c6.7-34.9,4.1-57.3,0.8-84.7c-1.4-12-2.9-18.9-8.2-25.4c-4.3-5.3-11.6-10.7-42.9-16.4
	C130.8,13.2,120.5,11.4,105,11.5z"/>
<path class="st1" d="M197.8,20.9c-19.1-13.3-52-20.7-90.4-20.3C70.5,1,36.3,8.6,15.8,21C6.4,26.8,0.5,37.3,0.5,48.4v115
	c0,20.8,19,50,36.7,70.4c11.5,13.3,41.4,44.2,68.7,44.2c26,0,55.8-30.9,67.4-44.1c17.8-20.3,37.1-49.4,38-69.9v-0.3l0.1-116.5
	C211.4,36.7,206.3,26.8,197.8,20.9z M45.7,210.3c-15.7-20.1-22.2-38.4-22.2-46.9v-115c0-3.1,1.6-6.1,4.2-7.7
	c16.8-10.2,47.5-16.8,79.9-17.1c0.9,0,1.7,0,2.6,0c32.1,0,59.8,6,74.4,16.2l0,0c2.3,1.6,3.7,4.4,3.7,7.3L188.2,163
	c-0.5,8.2-6.6,25.9-20.6,44.4c-1.8,1.1-13.5,15.8-17.3,19c-23.7,19.5-44.7,25.4-44.7,25.4s-27.4-10.3-43.5-24L45.7,210.3z"/>
<polygon class="st1" points="105.6,322.8 59.6,255.5 105.6,272 151.7,255.5 "/>
<g>
	<path class="st1" d="M182.2,97.1c-0.3,1.4-0.6,2.8-1,4.2c-1.3,5.6-4,10.7-7.2,15.4c-6.3,9.2-13.9,17.2-22.7,24
		c-2.9,2.3-6.1,4.1-9.6,5.4c-1.4,0.5-1.8,0.3-1.9-1.2c-1.5-12.7-5.7-24.6-10.8-36.2c-0.8-1.7-1.9-3.2-2.9-4.8
		c-0.9-1.4-2.2-2.1-3.9-2.4c-1.2-0.2-2.5-0.7-3.6-1.2c-0.6-0.3-1-0.1-1.3,0.4c-1.9,2.7-3.8,5.5-5.7,8.2c-5.1,7.4-11.1,14-17,20.6
		c-4.2,4.7-8.3,9.5-12.5,14.2c-7.6,8.6-13.3,18.3-17.7,28.8c-1.7,4-3.2,8.1-4.8,12.1c-0.4,1-0.9,2-1.5,3c-1.4,2.3-3.6,3.5-6.3,3.6
		c-1.3,0.1-2.6-0.1-4,0c-4.4,0.4-9.5-3.8-8.6-10c0.7-4.7,2.3-9.1,4.1-13.4c6.1-14.3,14.3-27.3,24.6-38.9c3.9-4.4,7.7-8.9,11.6-13.3
		c5-5.6,8.7-12,11.4-19c1.7-4.3,3.6-8.5,5.4-12.8c0.1-0.3,0-0.7-0.1-1c-0.8-1.2-1.6-2.5-2.4-3.7c-1-1.4-1-2.8,0.1-4.2
		c1.7-2.3,3.3-4.7,5.1-7c2.6-3.3,5.3-6.5,8-9.7c0.8-0.9,1.9-1.6,2.8-2.3c0.4,0,0.7,0,1.1,0c1.1,0.6,2.3,1.1,3.3,1.8
		c9,6.5,17.9,13.2,26,20.8c0.9,0.8,2,1.5,3.2,2c1.7,0.8,3.5,1.4,5.2,2.2c6.9,3.3,14,6.2,21.4,8.4c3.3,1,6.7,1.9,10.1,2.9
		c0.9,0.3,1.7,0.9,2.5,1.4C182.2,96,182.2,96.5,182.2,97.1z"/>
</g>
</svg>
