<?xml version="1.0" encoding="utf-8"?>
<!-- Generator: Adobe Illustrator 23.0.2, SVG Export Plug-In . SVG Version: 6.00 Build 0)  -->
<svg version="1.1" id="Слой_1" xmlns="http://www.w3.org/2000/svg" xmlns:xlink="http://www.w3.org/1999/xlink" x="0px" y="0px"
	 viewBox="0 0 211.6 327.9" style="enable-background:new 0 0 211.6 327.9;" xml:space="preserve">
<style type="text/css">
	.st0{fill:#E6E6E6;}
	.st1{fill:#333333;}
	.st2{fill:#333333;stroke:#333333;stroke-width:3;stroke-miterlimit:10;}
</style>
<path class="st0" d="M105,11.5c-39.2,0.4-48,13.1-80,15.2c-1.6,0.1-4.8,0.3-7.8,2.3c-10.3,7-6.4,27.6-4.7,45.3
	c4.5,47.7-10,49.2-2.7,84.7c1.1,5.6,6.2,28.2,22.6,52.3c12.4,18.1,34.4,50.4,67.5,52.7c47.7,3.3,81.3-58.2,84.7-64.4
	c9.8-17.9,12.7-33.2,17.2-56.2c6.7-34.9,4.1-57.3,0.8-84.7c-1.4-12-2.9-18.9-8.2-25.4c-4.3-5.3-11.6-10.7-42.9-16.4
	C130.8,13.2,120.5,11.4,105,11.5z"/>
<path class="st1" d="M197.8,20.9c-19.1-13.3-52-20.7-90.4-20.3C70.5,1,36.3,8.6,15.8,21C6.4,26.8,0.5,37.3,0.5,48.4v115
	c0,20.8,19,50,36.7,70.4c11.5,13.3,41.4,44.2,68.7,44.2c26,0,55.8-30.9,67.4-44.1c17.8-20.3,37.1-49.4,38-69.9v-0.3l0.1-116.5
	C211.4,36.7,206.3,26.8,197.8,20.9z M47.4,210c-15.7-20.1-23.9-38.1-23.9-46.6v-115c0-3.1,1.6-6.1,4.2-7.7
	c16.8-10.2,47.5-16.8,79.9-17.1c0.9,0,1.7,0,2.6,0c32.1,0,59.8,6,74.4,16.2l0,0c2.3,1.6,3.7,4.4,3.7,7.3L188.2,163
	c-0.5,8.2-8.1,24.5-22.1,43c-1.8,1.1-15.2,20.7-15.8,20.4l-88.2,1.4"/>
<polygon class="st1" points="105.6,322.8 59.6,255.5 105.6,272 151.7,255.5 "/>
<g>
	<g>
		<path class="st2" d="M165.2,166.3c0-21.2,0-42.4,0-63.6c-2.6-1-4.6-2.7-5.9-5.1c-0.6-1.1-0.8-2.4-1.3-3.8c7.3,0,14.4,0,21.4,0
			c0.7,4.1-4.3,9.1-9.4,9.4c0,21,0,42,0,63.2c2.4,0,4.9,0,7.4,0c0,2.4,0,4.6,0,7c-0.8,0-1.6,0-2.6,0c0,12.3,0,24.5,0,36.8
			c-24.1,0-46.2,67.3-70.2,67.3c-21.3,0-44.6-67.3-66-67.3c0-12.2,0-24.3,0-36.7c-1,0-1.8,0-2.7,0c0-2.4,0-4.6,0-7
			c2.4,0,4.9,0,7.4,0c0-21.2,0-42.2,0-63.2c-5.4-0.5-9.7-5.2-9.6-9.5c7,0,14,0,21,0c0.6,2.9-2.9,7.6-6.8,8.8c0,21.2,0,42.3,0,63.6
			C87,166.3,126,166.3,165.2,166.3z"/>
		<path class="st2" d="M129.9,91.9c-7.5,0-14.9,0-22.4,0c0-7.7,0-15.5,0-23.4c1.3,0,2.6,0,3.9,0c4.5,0,9,0,13.5,0
			c1.2,0,1.5,0.4,1.6,1.5c0.5,3.6,1.1,7.3,1.6,10.9c0.5,3,0.9,6,1.4,9C129.7,90.5,129.8,91.1,129.9,91.9z"/>
		<path class="st2" d="M87,68.6c6.4,0,12.6,0,18.8,0c0,7.8,0,15.4,0,23.2c-7.4,0-14.9,0-22.4,0C84.6,84,85.8,76.3,87,68.6z"/>
		<path class="st2" d="M85.3,68.5c-1.4,7.9-2.7,15.6-4,23.4c-7.8,0-15.5,0-23.3,0c0.2-0.5,0.3-1,0.5-1.4c3.3-7,6.7-13.9,9.9-20.9
			c0.4-0.9,0.9-1.1,1.8-1.1C75.2,68.5,80.1,68.5,85.3,68.5z"/>
		<path class="st2" d="M127.8,68.5c4.7,0,9.3,0.1,13.8-0.1c1.9-0.1,2.9,0.5,3.7,2.3c3.1,6.9,6.4,13.7,9.6,20.5
			c0.1,0.2,0.1,0.4,0.1,0.6c-7.7,0-15.4,0-23.2,0C130.5,84.1,129.1,76.4,127.8,68.5z"/>
		<path class="st2" d="M145.6,68.5c5.2,0,10.1-0.1,14.9,0.1c0.9,0,1.8,1.3,2.6,2.2c3,3.7,5.9,7.5,8.9,11.2c2.5,3.2,5.1,6.4,7.8,9.7
			c-0.6,0.1-1,0.1-1.3,0.1c-6.6,0-13.2,0-19.8,0c-0.9,0-1.3-0.3-1.7-1.1c-2.7-5.5-5.4-10.9-8.1-16.3
			C147.8,72.6,146.7,70.6,145.6,68.5z"/>
		<path class="st2" d="M67.4,68.5c-2.1,4.1-4.1,8-6.1,11.9c-1.8,3.5-3.5,7-5.3,10.6c-0.2,0.4-0.7,0.9-1.1,0.9
			c-7.1,0.1-14.2,0-21.6,0c1-1.3,1.8-2.4,2.6-3.5C41,82,46.1,75.5,51.3,69.1c0.3-0.3,0.8-0.6,1.2-0.7C57.4,68.5,62.3,68.5,67.4,68.5
			z"/>
		<path class="st2" d="M129.9,93.8c-0.1,4.5-4.6,9.1-8.5,9.4c-3.6,0.3-6.9,0.3-10-1.9c-2.1-1.5-4-5.1-3.9-7.5
			C114.9,93.8,122.4,93.8,129.9,93.8z"/>
		<path class="st2" d="M83.4,93.8c7.5,0,15,0,22.4,0c0.3,2.9-1.8,6.5-4.8,8.2c-2,1.1-4.1,1.3-6.4,1.3s-4.3-0.2-6.2-1.4
			C85.5,100.1,84,97.3,83.4,93.8z"/>
		<path class="st2" d="M57.9,93.8c7.7,0,15.3,0,22.9,0c-0.6,6.1-6.1,9.8-11.7,9.6C63,103.2,58.5,99.2,57.9,93.8z"/>
		<path class="st2" d="M132.2,93.8c7.7,0,15.2,0,22.8,0c0.1,4.4-4.1,8.4-8.8,9.4C139.1,104.6,132.8,99.9,132.2,93.8z"/>
	</g>
</g>
</svg>
