<?xml version="1.0" encoding="utf-8"?>
<!-- Generator: Adobe Illustrator 23.0.2, SVG Export Plug-In . SVG Version: 6.00 Build 0)  -->
<svg version="1.1" id="Слой_1" xmlns="http://www.w3.org/2000/svg" xmlns:xlink="http://www.w3.org/1999/xlink" x="0px" y="0px"
	 viewBox="0 0 211.6 327.9" style="enable-background:new 0 0 211.6 327.9;" xml:space="preserve">
<style type="text/css">
	.st0{fill:#0071BC;}
	.st1{fill:#FFFFFF;stroke:#0071BC;stroke-width:23;stroke-miterlimit:10;}
</style>
<g>
	<polygon class="st0" points="105.8,321.6 59.6,254.3 105.8,270.8 152.1,254.3 	"/>
	<g>
		<circle class="st1" cx="106.3" cy="139.9" r="91.9"/>
		<path class="st0" d="M84.4,119.2c-18.1-4-32.3,5.2-31.8,22.4l-4.4,6.9c0,2.4,0,4.2,0,5.8c1.5,1,2.7,1.7,3.6,2.3
			c0,19.1,0,37.7,0,56.2c-1.4,1-2.6,1.8-4.1,2.8c0.3,1.7,0.6,3.5,1,5.5c38.8,0,77.1,0.2,115.7-0.1c0-2.5,0-4.1,0-5.7
			c-1.4-1-2.6-2-3.7-2.8c0-18.9,0-37.3,0-55.9c1.3-1,2.6-1.9,4.2-3c-0.3-1.7-0.6-3.3-0.9-5.5l-3.8-7.2c-1-17.7-12-25.3-31.2-22.2
			c-0.3-2,0-11.3-0.3-13.2l0,0c-0.7-13.3-7.8-20.6-19.4-24c0-1.6,0-2.8,0-4l0.7-7.3c-1-3.1-1.7-5.2-2.4-7.4c-0.8,0-1.7,0-2.5,0
			c-0.8,2.3-1.5,4.7-2.4,7.3l0.5,7.2c0,1.5,0,2.9,0,4.2c-14.1,5.9-19.4,12.5-18.7,24 M92.4,211.5c0,0.6-0.3,1.2-0.6,2
			c-5.7,0-11.4,0-17.4,0c-0.3-0.9-0.7-1.9-0.7-2.8c0-11.6,0-23.3,0.4-34.9c0.1-3.9,1.3-7.9,2.4-11.7c0.9-3.1,2.9-5.7,6.6-5.6
			c3.7,0,5.7,2.7,6.6,5.7c1.3,4.2,2.4,8.6,2.5,13C92.6,188.7,92.4,200.1,92.4,211.5z M96.9,147.9c0.1-6.8,0.3-13.3,2.7-19.4
			c1.2-3,3-5.6,6.7-5.6c3.7,0.1,5.4,2.7,6.6,5.7c2.5,5.9,2.5,12.2,2.7,19.2C109,147.9,103.2,147.9,96.9,147.9z M138.4,213.6
			c-6.1,0-11.8,0-18.2,0c0-2.3,0-4.4,0-6.4c0.3-12.2,0.6-24.5,1.2-36.7c0.1-2.4,1.1-4.9,2.1-7.2c1.1-2.7,2.9-4.6,6-4.7
			c3.4-0.1,5.4,2.1,6.6,4.8c1.1,2.7,2.3,5.6,2.3,8.5C138.5,185.5,138.4,199.2,138.4,213.6z"/>
	</g>
</g>
</svg>
