<?xml version="1.0" encoding="utf-8"?>
<!-- Generator: Adobe Illustrator 23.0.2, SVG Export Plug-In . SVG Version: 6.00 Build 0)  -->
<svg version="1.1" id="Слой_1" xmlns="http://www.w3.org/2000/svg" xmlns:xlink="http://www.w3.org/1999/xlink" x="0px" y="0px"
	 viewBox="0 0 211.6 327.9" style="enable-background:new 0 0 211.6 327.9;" xml:space="preserve">
<style type="text/css">
	.st0{fill:#E6E6E6;}
	.st1{fill:#333333;}
</style>
<path class="st0" d="M105,11.5c-39.2,0.4-48,13.1-80,15.2c-1.6,0.1-4.8,0.3-7.8,2.3c-10.3,7-6.4,27.6-4.7,45.3
	C17,122,2.5,123.5,9.8,159c1.1,5.6,6.2,28.2,22.6,52.3c12.4,18.1,34.4,50.4,67.5,52.7c47.7,3.3,81.3-58.2,84.7-64.4
	c9.8-17.9,12.7-33.2,17.2-56.2c6.7-34.9,4.1-57.3,0.8-84.7c-1.4-12-2.9-18.9-8.2-25.4c-4.3-5.3-11.6-10.7-42.9-16.4
	C130.8,13.2,120.5,11.4,105,11.5z"/>
<path class="st1" d="M197.8,20.9c-19.1-13.3-52-20.7-90.4-20.3C70.5,1,36.3,8.6,15.8,21C6.4,26.8,0.5,37.3,0.5,48.4v115
	c0,20.8,19,50,36.7,70.4c11.5,13.3,41.4,44.2,68.7,44.2c26,0,55.8-30.9,67.4-44.1c17.8-20.3,37.1-49.4,38-69.9v-0.3l0.1-116.5
	C211.4,36.7,206.3,26.8,197.8,20.9z M45.7,210.3c-15.7-20.1-22.2-38.4-22.2-46.9v-115c0-3.1,1.6-6.1,4.2-7.7
	c16.8-10.2,47.5-16.8,79.9-17.1c0.9,0,1.7,0,2.6,0c32.1,0,59.8,6,74.4,16.2l0,0c2.3,1.6,3.7,4.4,3.7,7.3L188.2,163
	c-0.5,8.2-6.6,25.9-20.6,44.4c-1.8,1.1-13.5,15.8-17.3,19c-23.7,19.5-44.7,25.4-44.7,25.4s-27.4-10.3-43.5-24L45.7,210.3z"/>
<polygon class="st1" points="105.6,322.8 59.6,255.5 105.6,272 151.7,255.5 "/>
<path class="st1" d="M105.2,234.9c-2.2-1.2-4.4-2.5-6.7-3.5c-5.1-2.3-10.3-4.3-15.3-6.7c-9.1-4.2-17.5-9.5-24.6-16.7
	c-2.5-2.6-4.8-5.4-7.1-8.2c-0.1-0.1-0.2-0.3-0.4-0.5c-1.5,1.7-3,3.4-4.8,5.4c-0.3-0.8-0.6-1.4-0.8-1.9c-2.5-7.4-3.1-15.1-2.5-22.8
	c0.3-4,0.9-8,1.5-12c0-0.4,0.4-0.7,0.6-1.1c0.4,0.2,0.8,0.4,1.1,0.7c1.7,2.3,3.2,4.6,5,6.8c4.3,5.4,9.6,9.7,15.3,13.5
	c0.7,0.5,1.2,1.3,1.8,1.9c-0.7,0.5-1.4,1-2.1,1.4c-2.2,1.1-4.5,2.1-7.1,3.3c2.2,1.7,4,3.3,6,4.7c6.3,4.4,13.3,7.5,21,8.6
	c2.8,0.4,5.6,0.1,7.9-1.6c2.6-1.9,3.3-4.7,3.5-7.7c0.3-4.2,0.4-8.5,0.7-12.9c0.7,0.3,1.3,0.6,1.9,0.8c1.1,0.3,2.3,0.4,3.4,0.7
	c0.9,0.3,1.8,0.7,2.7,1c1,0.4,2.1,0.6,3.2,0.9c0.3,0.1,0.5,0.2,0.7,0.3c0.5,0.3,1,0.8,1.5,0.9c1.5,0.5,2,1.5,2,3
	c0,2.5,0.3,5.1,0.7,7.5c0.7,4.1,3.6,6.6,7.7,7c3.6,0.3,7-0.6,10.3-1.6c7.3-2.3,13.7-6.1,19.4-11.3c0.1-0.1,0.1-0.2,0.4-0.5
	c-2.5-1.1-4.8-2.2-7.2-3.3c-0.3-0.1-0.6-0.2-0.9-0.3c-1-0.5-1.1-1.3-0.3-2c1-0.8,2.1-1.5,3.1-2.2c6.9-4.8,12.9-10.6,17.4-17.8
	c0.3-0.4,0.5-0.8,0.9-1.1c0.3-0.3,0.8-0.5,1.2-0.7c0.2,0.4,0.6,0.8,0.6,1.2c0.5,4.6,1.2,9.2,1.5,13.8c0.5,6.7-0.3,13.3-2.2,19.8
	c-0.3,0.9-0.6,1.7-1.1,3c-1.7-2-3.2-3.6-4.8-5.4c-0.9,1.2-1.8,2.3-2.7,3.4c-5.3,6.4-11.5,11.6-18.5,16c-7.7,4.8-16,8.3-24.3,11.8
	c-3,1.3-5.8,2.9-8.7,4.3C105.7,234.9,105.5,234.9,105.2,234.9z"/>
<path class="st1" d="M112.9,178.7c-1.5-0.5-2.9-0.9-4.2-1.5c-2.4-1.1-4.8-1.8-7.4-2.3c-0.9-0.2-1.7-0.8-2.5-1.4
	c-0.2-0.1-0.3-0.6-0.3-0.9c0.2-9.6,0.3-19.3,0.5-28.9c0.1-6.8,0.2-13.7,0.3-20.5c0-5.5,0-11,0-16.7c-0.2,0-0.6,0-1.1,0
	c-3.2-0.2-6.4-0.3-9.6-0.6c-0.4,0-1.1-0.5-1.2-0.9c-1.1-4.2-1.2-8.5-0.1-12.7c0.3-1,0.7-1.5,1.8-1.6c3.1-0.3,6.1-0.7,9.2-1
	c0.6-0.1,1.1-0.1,1.8-0.1c0-2.1,0-4.2,0-6.3c0-0.3-0.6-0.7-0.9-0.9c-4.4-2.2-7.3-5.6-8.4-10.4c-2-8.2,3.2-16.6,11.4-18.6
	c9-2.2,18.1,4.3,19,13.5c0.3,3.2-0.3,6-1.6,8.5c-1.5-1.2-2.9-2.4-4.4-3.5c-0.5-0.4-0.6-0.8-0.5-1.4c1-4.7-1.6-9.2-6.1-10.7
	c-4.5-1.4-9.3,0.7-11.1,5c-1.9,4.3-0.2,9.2,3.8,11.7c2.2,1.4,4,3.3,6,5c0.9,0.8,1.8,1.6,2.8,2.2c0.9,0.5,1.3,1.2,1.3,2.2
	c0,1.2,0,2.4,0,3.8c0.7,0,1.4,0.1,2.1,0c1.1-0.1,1.5,0.3,1.8,1.4c0.4,1.4,1.1,2.7,1.6,4c0.1,0.3,0.1,0.5,0.2,0.8
	c0.2,1.2,0.4,2.4,0.6,3.6c0.2,1.1,0.3,2,0,3.2s-0.2,2.4-0.2,3.9c-1.8,0-3.6,0-5.6,0C112.1,130.6,112.5,154.7,112.9,178.7z"/>
<path class="st1" d="M84.8,91.4c-0.1,4.7-0.3,9.4-0.4,14.3c-1.8-0.1-3.8-0.1-5.8-0.3c-2.3-0.3-4.6-0.8-6.9-1.1c-2-0.2-3-1.4-3.3-3.2
	c-0.4-2-0.3-4.1,0.6-6c0.5-1.1,1.2-1.7,2.5-2.1c4.3-1.1,8.6-1.5,13-1.6C84.5,91.3,84.7,91.4,84.8,91.4z"/>
<path class="st1" d="M129.5,105.8c0.7-3.7,0.3-6.8-0.5-10c-0.4-1.4-0.3-2.9-0.4-4.6c2.6,0.3,5.1,0.5,7.6,0.9c1.3,0.2,2.7,0.6,4,0.9
	c1.1,0.2,1.8,0.8,2.2,1.7c1,2.3,1.3,4.7,0.4,7.1c-0.4,1.2-1.3,2-2.6,2.2C136.6,104.6,133.2,105.2,129.5,105.8z"/>
<path class="st1" d="M113.9,74.6c-1.2,0.6-2.2,0.9-3.1,1.4c-2,1.3-3.9,1.3-5.6-0.5c-0.5-0.4-1-0.8-1.5-1.2c-1.2-1.1-1-2.4,0.3-3.4
	c1.8-1.2,4.3-1.3,6,0C111.4,72.1,112.6,73.4,113.9,74.6z"/>
<path class="st1" d="M126.7,105.7c-1.5-1-3-1.9-4.3-3c-0.7-0.5-1.4-1.3-1.7-2c-0.6-1.7-0.9-3.5-1.3-5.5c2.1,0.7,4.1,1.3,6,2.1
	c0.7,0.3,1.4,1.3,1.6,2.1C127.4,101.6,127.2,103.7,126.7,105.7z"/>
<path class="st1" d="M120.3,102.3c1.6,1.1,3,2.1,4.4,3.1c1.2,0.9,1.7,2,1.4,3.5c-0.3,2-0.8,3.9-1.9,5.6c-0.9-1.3-1.7-2.6-2.7-3.7
	c-1.4-1.5-1.8-3.3-1.6-5.2C120.1,104.5,120.2,103.4,120.3,102.3z"/>
<path class="st1" d="M119.8,80.9c-1.7,0.4-3.2,0.7-4.7,1.2c-1.3,0.4-2.3,0.2-3.3-0.6c-1-0.9-2.1-1.8-3-2.6c1.2-0.7,2.4-1.3,3.5-2
	c2-1.2,3.2-1.1,4.8,0.5C118.1,78.5,118.9,79.8,119.8,80.9z"/>
<path class="st1" d="M126.5,96.3c-1.9-0.4-3.5-0.9-5.2-1.2c-1.1-0.2-1.8-0.8-2.3-1.8c-0.6-1.2-1.1-2.5-1.6-3.5
	c1.5-0.2,3-0.3,4.5-0.5c1.9-0.2,2.8,0.3,3.4,2.1C125.8,92.9,126.1,94.6,126.5,96.3z"/>
<path class="st1" d="M124.8,87.4c-1.9,0.1-3.5,0.1-5.1,0.3c-1.4,0.2-2.6-0.2-3.6-1.2c-0.8-0.8-1.6-1.6-2.4-2.4
	c1.5-0.6,2.9-1.1,4.2-1.7c1.8-0.7,2.9-0.6,4.2,1C123.1,84.7,123.9,86.1,124.8,87.4z"/>
<path class="st1" d="M119.7,121c-0.5-1.4-0.9-2.8-1.5-4.2c-0.9-1.9-0.9-3.8,0-5.7c0.4-0.8,0.7-1.7,1.2-2.8c0.6,1.1,1,2,1.5,2.9
	c0.1,0.2,0.2,0.5,0.4,0.7C124.4,114.9,122.5,118.6,119.7,121z"/>
<path class="st1" d="M123.3,196.7c-1.3-0.9-2.3-1.9-3.6-2.3c-2.1-0.8-2.8-2.5-3.5-4.3c1.2-0.3,2.4-0.6,3.6-0.8
	c3.5-0.4,4.2,0.5,4.4,4.1C124.3,194.6,123.6,195.8,123.3,196.7z"/>
<path class="st1" d="M86.3,170.6c-1.2,0.8-2.3,1.4-3.3,2.1c-1.5,1.1-3.1,1.2-4.6,0.1c-1.1-0.8-2.2-1.7-3.3-2.6
	c1.6-0.6,3.1-1.2,4.5-1.7c1.4-0.6,2.8-0.5,4.1,0.3C84.6,169.5,85.4,170.1,86.3,170.6z"/>
<path class="st1" d="M99.7,183.6c1.5-1.2,3-2.3,4.6-3.4c1.4-1.1,2.9-1.2,4.5-0.5c0.9,0.4,1.8,0.8,2.9,1.2c-0.3,0.2-0.5,0.4-0.8,0.5
	c-1.1,0.7-2.3,1.3-3.4,2.1C104.9,185.6,102.3,185.1,99.7,183.6z"/>
<path class="st1" d="M92.9,174c-1.5,0.8-2.8,1.4-4,2.1c-1.5,0.9-3,1-4.6,0.2c-1.1-0.5-2.2-1.1-3.3-1.7c1.6-0.9,3.1-1.7,4.6-2.6
	c1.1-0.6,2.1-0.7,3.2-0.2C90.2,172.6,91.5,173.3,92.9,174z"/>
<path class="st1" d="M76.3,153.7c-1.6-0.3-3-0.6-4.5-1c-1.9-0.5-2.3-1.3-1.4-3c0.7-1.3,1.6-2.5,2.4-3.7c1,0.9,1.8,1.7,2.8,2.4
	C78,150.5,78.2,151.4,76.3,153.7z"/>
<path class="st1" d="M105.7,178.8c-2,1.3-3.8,2.4-5.6,3.4c-1.3,0.8-2.7,0.5-4.1,0c-0.8-0.3-1.5-0.7-2.3-1c1.8-1.3,3.5-2.5,5.2-3.6
	c0.5-0.3,1.2-0.4,1.7-0.3C102.3,177.7,103.9,178.2,105.7,178.8z"/>
<path class="st1" d="M87.5,178.2c1.5-0.9,2.9-1.6,4.2-2.5c1.3-0.9,2.6-1,4-0.3c1.1,0.5,2.1,0.9,3.3,1.5c-1.7,1.1-3.3,2.3-5,3.2
	c-0.6,0.3-1.6,0.3-2.3,0C90.3,179.6,89,178.8,87.5,178.2z"/>
<path class="st1" d="M77.8,141.4c0.6,1.1,1,2.1,1.6,3c2,2.8,1.9,3.4-0.8,5.5c-1-0.7-1.9-1.4-2.8-2c-2.3-1.4-2.4-2.7-0.6-4.6
	c0.4-0.4,0.8-0.8,1.3-1.1C77,141.9,77.5,141.6,77.8,141.4z"/>
<path class="st1" d="M71.1,165.4c1.2-0.3,2.4-0.4,3.5-0.8c3.3-1.3,3.9-1.3,6.2,1.5c0.3,0.3,0.5,0.6,0.7,0.8
	c-1.1,0.5-2.2,0.8-3.2,1.3c-2.6,1.3-4.1,1-5.9-1.2C71.9,166.4,71.5,165.8,71.1,165.4z"/>
<path class="st1" d="M77.4,162.5c-1.1,0.4-2,0.6-2.9,1c-3.4,1.5-4.6,0.8-5.2-2.8c-0.1-0.5-0.1-1.1-0.1-1.9c1.8,1.1,3.5,0.3,5.1,0.2
	c2-0.2,2.4,0.1,2.8,2C77.2,161.5,77.3,162,77.4,162.5z"/>
<path class="st1" d="M89.1,141c-0.5-1.4-0.8-2.7-1.3-3.9c-1.3-3.3,0.1-5,3.2-5.7c0.4,1.7,0.7,3.5,1.1,5.2
	C92.5,138.7,91.2,140.7,89.1,141z"/>
<path class="st1" d="M85.1,144.1c-0.5-1.2-1-2.3-1.5-3.5c-1.3-3.1-0.5-4.9,2.6-5.9c0.4,1.3,0.8,2.7,1.3,4
	C88.6,141.2,87.7,143.3,85.1,144.1z"/>
<path class="st1" d="M117.6,183.8c-1.7,0.9-3.5,1.6-5.1,2.5c-1.2,0.6-2.4,0.6-3.6,0.1c-0.8-0.3-1.5-0.7-2.4-1c1.6-1.1,3-2.1,4.5-3.1
	c1.1-0.7,2.3-0.8,3.4-0.2C115.5,182.7,116.6,183.3,117.6,183.8z"/>
<path class="st1" d="M69.2,153c1.3,0.3,2.4,0.6,3.5,0.9c0.2,0,0.3,0,0.5,0c2.8,0.2,3.5,1.2,2.6,3.7c-1.3,0.3-2.4,0.5-3.6,0.7
	c-2.5,0.6-3.7-0.5-3.4-3C68.9,154.4,69.1,153.5,69.2,153z"/>
<path class="st1" d="M111.5,187.4c1.6-0.8,3.2-1.5,4.7-2.3c1.4-0.7,2.7-0.5,3.9,0.6c0.9,0.8,1.7,1.7,2.5,2.5c-1.5,0.2-3,0.2-4.4,0.8
	c-2,0.8-3.7,0.4-5.4-0.7C112.3,188,111.9,187.7,111.5,187.4z"/>
<path class="st1" d="M95.6,128.6c0,2.8,0.1,5.6-0.1,8.4c-0.1,1.3-1.6,1.2-2.5,1.4c-0.3-1.8-0.7-3.6-1-5.4
	C91.6,130.6,92.9,128.8,95.6,128.6z"/>
<path class="st1" d="M117.9,202.1c-1.9-3.3-2-6.6-0.6-8.1c1.2,0.6,2.4,1.3,3.6,1.9c1.1,0.6,1.5,1.7,0.7,2.7
	C120.5,199.9,119.2,200.9,117.9,202.1z"/>
<path class="st1" d="M82,146.7c-0.7-1-1.3-2-1.8-2.9c-0.4-0.6-0.8-1.2-1-1.9c-0.6-2,0.3-3.2,2.6-3.8c0.7,1.8,1.5,3.5,2.1,5.3
	C84.5,144.9,83.7,146.1,82,146.7z"/>
<path class="st1" d="M116.6,114c0.5,1.6,0.9,3.2,1.5,4.7c1,2.7,0.1,5.1-2.7,6.8c0-2.5,0-4.9,0-7.3c0-0.7,0-1.4-0.1-2
	C115.2,115.1,115.6,114.4,116.6,114z"/>
</svg>
