<?xml version="1.0" encoding="utf-8"?>
<!-- Generator: Adobe Illustrator 23.0.2, SVG Export Plug-In . SVG Version: 6.00 Build 0)  -->
<svg version="1.1" id="Слой_1" xmlns="http://www.w3.org/2000/svg" xmlns:xlink="http://www.w3.org/1999/xlink" x="0px" y="0px"
	 viewBox="0 0 211.6 327.9" style="enable-background:new 0 0 211.6 327.9;" xml:space="preserve">
<style type="text/css">
	.st0{fill:#662D91;}
	.st1{fill:#FFFFFF;stroke:#662D91;stroke-width:23;stroke-miterlimit:10;}
</style>
<g id="Спираль_1_">
	<polygon class="st0" points="106.2,321.6 60,254.3 106.2,270.8 152.5,254.3 	"/>
	<circle class="st1" cx="106.3" cy="139.9" r="91.9"/>
	<path class="st0" d="M47.1,119.4c3.8-8.2,9.6-15.6,16.9-21.5c7.2-5.8,16.1-10,25.4-12.1c4.7-1,9.5-1.6,14.3-1.5s9.7,0.6,14.5,1.7
		c4.7,1.1,9.4,2.8,13.8,5s8.7,4.9,12.5,8.2c7.7,6.6,13.5,15.3,16.9,25c3.3,9.7,4.1,20.3,2,30.5c-1,5.1-2.7,10-5,14.7
		c-1.2,2.3-2.4,4.6-4,6.8c-1.5,2.2-3.2,4.3-5,6.2c-7.3,7.9-17.3,13.2-27.8,15.3c-5.2,1-10.7,1.3-16.1,0.7c-2.7-0.3-5.4-0.8-7.9-1.5
		c-2.6-0.8-5.1-1.6-7.6-2.7c-2.4-1.1-4.8-2.4-7.2-3.9c-2.3-1.5-4.5-3.3-6.5-5.2c-4-3.8-7.3-8.5-9.7-13.5c-2.4-5-3.8-10.5-4.3-16
		s0.2-11.1,1.7-16.5c0.8-2.7,1.8-5.2,3.1-7.7c1.2-2.4,2.7-4.9,4.5-7.1c3.5-4.5,8-8.2,13.1-10.8c5.1-2.6,10.7-4.1,16.3-4.3
		c5.7-0.3,11.4,0.7,16.6,2.8c0.6,0.2,1.3,0.6,1.9,0.8l1.9,0.9l1.8,1c0.6,0.4,1.2,0.8,1.8,1.2c2.4,1.6,4.5,3.6,6.5,5.8
		c3.8,4.4,6.4,9.7,7.5,15.3c1.2,5.6,0.9,11.4-0.8,16.8c-0.9,2.7-2,5.2-3.5,7.6c-0.8,1.1-1.7,2.2-2.6,3.3c-0.9,1-2,2-3.1,2.9
		c-2.2,1.7-4.7,3.1-7.3,4.1c-2.6,0.9-5.4,1.3-8.1,1.2s-5.2-0.9-7.5-1.9c-2.3-1.1-4.2-2.6-5.8-4.3c4.5,1.1,9,0.9,12.5-0.4
		c3.6-1.3,6.2-3.7,8.2-6.6c0.9-1.5,1.7-3,2.4-4.6c0.8-1.5,1.3-3.1,1.7-4.7c0.8-3.3,0.7-6.6-0.2-9.9c-0.9-3.2-2.6-6.1-4.8-8.4
		c-1.1-1.2-2.4-2.2-3.7-3c-0.3-0.2-0.7-0.4-1-0.6l-1.1-0.6l-1.2-0.5c-0.4-0.2-0.8-0.3-1.2-0.5c-3.2-1.1-6.6-1.5-9.9-1.2
		s-6.6,1.3-9.4,2.9c-2.9,1.6-5.4,3.8-7.3,6.4c-1,1.3-1.8,2.7-2.6,4.3c-0.8,1.6-1.3,3.1-1.8,4.8c-1.7,6.6-1.2,13.9,1.8,20.1
		c1.5,3.1,3.5,5.9,5.9,8.2c2.4,2.4,5.3,4.3,8.6,5.8c6.5,3,13.9,3.8,21,2.6s13.8-4.7,19-9.9c1.3-1.3,2.4-2.7,3.6-4.1
		c1.1-1.5,2-3,3-4.7c1.7-3.4,3.2-6.9,4.1-10.6c0.9-3.7,1.3-7.5,1.2-11.4c-0.1-3.8-0.6-7.7-1.6-11.4c-1-3.7-2.6-7.3-4.5-10.7
		c-0.9-1.7-2.1-3.3-3.3-4.9c-1.2-1.5-2.4-3-3.9-4.4c-2.8-2.8-5.9-5.2-9.4-7.3c-3.5-2.1-7.2-3.8-11.1-5.1c-3.9-1.3-8-2.2-12.1-2.6
		s-8.3-0.5-12.5,0c-8.3,0.9-16.7,3.6-24.1,8C59,105.9,52.4,112,47.1,119.4z"/>
</g>
</svg>
