<?xml version="1.0" encoding="utf-8"?>
<!-- Generator: Adobe Illustrator 23.0.2, SVG Export Plug-In . SVG Version: 6.00 Build 0)  -->
<svg version="1.1" id="Слой_1" xmlns="http://www.w3.org/2000/svg" xmlns:xlink="http://www.w3.org/1999/xlink" x="0px" y="0px"
	 viewBox="0 0 211.6 327.9" style="enable-background:new 0 0 211.6 327.9;" xml:space="preserve">
<style type="text/css">
	.st0{fill:#FFFFFF;stroke:#000000;stroke-width:23;stroke-miterlimit:10;}
	.st1{enable-background:new    ;}
</style>
<polygon points="105.8,321.6 59.6,254.3 105.8,270.8 152.1,254.3 "/>
<circle class="st0" cx="106.3" cy="139.9" r="91.9"/>
<g class="st1">
	<path d="M146.1,112c0,5.1-0.7,9.6-2.2,13.7c-1.5,4.1-3.5,7.6-6.1,10.6c-2.6,3-5.8,5.4-9.5,7.1c-3.7,1.8-7.7,2.9-12.2,3.4l-0.7,18.1
		c-0.1,1.1-0.9,1.9-2.6,2.5c-1.7,0.6-4.2,0.8-7.4,0.8c-2,0-3.8,0-5.1-0.1c-1.4-0.1-2.5-0.3-3.3-0.5c-0.8-0.2-1.4-0.6-1.8-1
		c-0.4-0.4-0.6-1-0.6-1.7l-0.8-21.9c-0.1-2,0-3.6,0.3-4.8c0.2-1.2,0.7-2.2,1.3-3s1.5-1.3,2.5-1.5c1-0.3,2.2-0.4,3.5-0.4h1.3
		c3.3,0,6.1-0.5,8.5-1.6c2.4-1.1,4.3-2.4,5.9-4.2c1.5-1.7,2.7-3.8,3.4-6.1c0.7-2.3,1.1-4.9,1.1-7.5c0-3-0.4-5.7-1.3-8.2
		c-0.8-2.5-2.1-4.6-3.8-6.4c-1.7-1.8-3.8-3.2-6.4-4.1c-2.6-1-5.6-1.4-9-1.4c-3.2,0-5.9,0.3-8.3,0.9c-2.4,0.6-4.5,1.3-6.2,2
		c-1.7,0.7-3.2,1.4-4.3,2c-1.1,0.6-2,0.9-2.6,0.9c-0.4,0-0.8-0.1-1.2-0.4c-0.4-0.3-0.7-0.8-0.9-1.5c-0.2-0.7-0.4-1.8-0.6-3.2
		c-0.2-1.4-0.2-3.1-0.2-5.2c0-2.2,0.1-3.7,0.3-4.7c0.2-1,0.6-1.8,1.2-2.4c0.6-0.6,1.8-1.3,3.5-2.2c1.7-0.8,3.8-1.6,6.2-2.3
		c2.4-0.7,5.1-1.3,8.1-1.8c3-0.5,6.1-0.7,9.3-0.7c7.3,0,13.5,1,18.7,3s9.4,4.7,12.8,8.1c3.3,3.4,5.7,7.3,7.3,11.7
		C145.3,102.5,146.1,107.1,146.1,112z M118.7,191.5c0,2.5-0.2,4.7-0.6,6.4c-0.4,1.7-1.1,3.1-2.1,4.2c-1,1.1-2.4,1.8-4.1,2.3
		c-1.7,0.5-3.8,0.7-6.3,0.7c-2.6,0-4.7-0.2-6.4-0.7c-1.7-0.5-3-1.2-4-2.3c-1-1.1-1.7-2.4-2.1-4.2c-0.4-1.7-0.6-3.9-0.6-6.4
		c0-2.6,0.2-4.8,0.6-6.5c0.4-1.8,1.1-3.2,2.1-4.3s2.4-1.9,4-2.3c1.7-0.5,3.8-0.7,6.4-0.7c2.5,0,4.6,0.2,6.3,0.7
		c1.7,0.5,3.1,1.2,4.1,2.3c1,1.1,1.7,2.5,2.1,4.3C118.5,186.7,118.7,188.9,118.7,191.5z"/>
</g>
</svg>
