<?xml version="1.0" encoding="utf-8"?>
<!-- Generator: Adobe Illustrator 23.0.2, SVG Export Plug-In . SVG Version: 6.00 Build 0)  -->
<svg version="1.1" id="Слой_1" xmlns="http://www.w3.org/2000/svg" xmlns:xlink="http://www.w3.org/1999/xlink" x="0px" y="0px"
	 viewBox="0 0 211.6 327.9" style="enable-background:new 0 0 211.6 327.9;" xml:space="preserve">
<style type="text/css">
	.st0{fill:#F2F2F2;}
	.st1{fill:#333333;}
</style>
<g id="Слой_2">
	<g>
		<path class="st0" d="M128.6,263H83V116.5l22.8-22.8l22.8,22.8C128.6,165.3,128.6,214.2,128.6,263z"/>
	</g>
	<polygon class="st1" points="105.8,93.7 83,116.5 83,133.2 83,133.2 105.8,110.4 128.6,133.2 128.6,116.5 	"/>
	<polygon class="st1" points="105.8,126.1 83,148.9 83,165.7 83,165.7 105.8,142.9 128.6,165.7 128.6,148.9 	"/>
	<polygon class="st1" points="105.8,158.6 83,181.4 83,198.1 83,198.1 105.8,175.3 128.6,198.1 128.6,181.4 	"/>
	<polygon class="st1" points="105.8,191 83,213.8 83,230.6 83,230.6 105.8,207.7 128.6,230.6 128.6,213.8 	"/>
	<polygon class="st1" points="105.8,223.4 83,246.2 83,263 83,263 105.8,263 128.6,263 128.6,246.2 	"/>
	<g>
		<path class="st1" d="M105.8,102.2l16.8,16.8v138H89V119L105.8,102.2 M105.8,93.7L83,116.5V263h45.6c0-48.8,0-97.7,0-146.5
			L105.8,93.7L105.8,93.7z"/>
	</g>
	<polygon class="st1" points="105.8,270.8 59.6,254.3 105.8,321.6 152.1,254.3 	"/>
	<ellipse class="st1" cx="105.8" cy="263" rx="32.9" ry="16.8"/>
</g>
</svg>
