<?xml version="1.0" encoding="utf-8"?>
<!-- Generator: Adobe Illustrator 23.0.2, SVG Export Plug-In . SVG Version: 6.00 Build 0)  -->
<svg version="1.1" id="Слой_1" xmlns="http://www.w3.org/2000/svg" xmlns:xlink="http://www.w3.org/1999/xlink" x="0px" y="0px"
	 viewBox="0 0 211.6 327.9" style="enable-background:new 0 0 211.6 327.9;" xml:space="preserve">
<style type="text/css">
	.st0{fill:#662483;}
</style>
<g id="Спираль">
	<polygon class="st0" points="105.8,321.6 59.6,254.3 105.8,270.8 152.1,254.3 	"/>
	<path class="st0" d="M4.8,117.6c6.5-14,16.5-26.8,28.9-36.8S61.3,63.7,77.2,60c8-1.8,16.3-2.7,24.5-2.6c8.3,0.1,16.6,1,24.8,2.9
		c8.1,1.9,16.1,4.8,23.7,8.5c7.6,3.7,15,8.4,21.5,14.1c13.2,11.3,23.2,26.3,28.9,42.9s7,34.8,3.5,52.3c-1.7,8.7-4.6,17.2-8.5,25.2
		c-2,3.9-4.2,7.9-6.9,11.7c-2.6,3.8-5.5,7.4-8.6,10.7c-12.6,13.5-29.6,22.6-47.6,26.3c-9,1.8-18.4,2.3-27.6,1.2
		c-4.6-0.6-9.2-1.4-13.6-2.6c-4.5-1.3-8.8-2.8-13.1-4.7c-4.2-1.9-8.2-4.1-12.3-6.7c-4-2.6-7.7-5.6-11.2-8.9
		c-6.9-6.6-12.5-14.6-16.6-23.2c-4.1-8.6-6.6-18-7.3-27.5c-0.8-9.5,0.3-19.1,3-28.3c1.3-4.6,3.1-9,5.3-13.2
		c2.1-4.2,4.7-8.4,7.7-12.2c6-7.7,13.8-14.1,22.5-18.5s18.3-7,28-7.4c9.7-0.5,19.5,1.2,28.4,4.8c1.1,0.4,2.2,1,3.3,1.4l3.2,1.6
		l3.1,1.8c1,0.7,2.1,1.3,3.1,2c4.1,2.8,7.8,6.1,11.1,9.9c6.5,7.5,10.9,16.6,12.9,26.2c2,9.6,1.6,19.6-1.3,28.8
		c-1.5,4.6-3.5,9-6,13.1c-1.4,1.9-2.9,3.8-4.5,5.6c-1.6,1.7-3.4,3.4-5.3,4.9c-3.8,3-8,5.4-12.6,7c-4.5,1.6-9.3,2.3-13.9,2
		c-4.6-0.2-9-1.5-12.9-3.3c-3.9-1.9-7.2-4.5-9.9-7.4c7.8,1.9,15.4,1.6,21.5-0.7s10.7-6.4,14-11.3c1.6-2.5,3-5.1,4.1-7.9
		c1.3-2.6,2.3-5.4,3-8.1c1.3-5.6,1.2-11.4-0.4-16.9c-1.5-5.5-4.4-10.4-8.2-14.4c-1.9-2-4.1-3.7-6.4-5.2c-0.6-0.4-1.2-0.7-1.8-1
		l-1.9-1l-2-0.9c-0.7-0.3-1.3-0.5-2-0.8c-5.5-1.9-11.3-2.6-16.9-2.1c-5.7,0.5-11.3,2.2-16.2,4.9c-5,2.7-9.2,6.5-12.6,11
		c-1.7,2.2-3.1,4.6-4.4,7.4c-1.3,2.7-2.3,5.4-3.1,8.3c-3,11.3-2,23.8,3.1,34.4c2.5,5.3,6,10.1,10.2,14.1c4.2,4.1,9.1,7.3,14.8,9.9
		c11.2,5.1,23.9,6.6,36.1,4.5s23.7-8.1,32.5-16.9c2.2-2.2,4.2-4.6,6.1-7.1c1.9-2.5,3.5-5.2,5.1-8.1c3-5.8,5.5-11.8,7-18.1
		s2.3-12.9,2.1-19.5c-0.1-6.6-1-13.2-2.8-19.6s-4.4-12.6-7.8-18.4c-1.6-2.9-3.6-5.7-5.6-8.4c-2.1-2.6-4.2-5.2-6.7-7.6
		c-4.8-4.8-10.1-9-16.1-12.5c-6-3.6-12.4-6.5-19.1-8.8c-6.7-2.3-13.7-3.8-20.7-4.5s-14.3-0.8-21.5,0C65.1,74.6,50.8,79.2,38,86.9
		C25.1,94.4,13.8,104.9,4.8,117.6z"/>
</g>
</svg>
